<?xml version="1.0"?>
<svg xmlns="http://www.w3.org/2000/svg" viewBox="0 0 512 512" width="512" height="512"><g id="filled_outline" data-name="filled outline"><circle cx="256" cy="256" r="128" style="fill:#b8eaee"/><path d="M256,120c-74.992,0-136,61.008-136,136s61.008,136,136,136,136-61.008,136-136S330.992,120,256,120Zm78.289,128a325.759,325.759,0,0,0-5.064-49.888c9.14-2.108,18.184-4.748,27.17-7.654A119.145,119.145,0,0,1,375.6,248ZM375.6,264a119.148,119.148,0,0,1-19.339,57.77c-8.952-2.915-17.962-5.567-27.069-7.69a325.65,325.65,0,0,0,5.1-50.08Zm-29.549-87.06c-6.636,2.027-13.3,3.919-20.024,5.478-2.283-9.848-5.231-19.572-8.46-29.233A120.674,120.674,0,0,1,346.046,176.94Zm-35.719,8.677A309.777,309.777,0,0,1,264,190.281V136.405a118.953,118.953,0,0,1,33.179,7.028A311.3,311.3,0,0,1,310.327,185.617Zm-97.386-41.495A119.047,119.047,0,0,1,248,136.405v53.876a309.738,309.738,0,0,1-47.854-4.961A311.889,311.889,0,0,1,212.941,144.122ZM248,206.289V248H192.118a309.608,309.608,0,0,1,4.8-47.008A325.667,325.667,0,0,0,248,206.289ZM248,264v41.689a325.666,325.666,0,0,0-51.115,5.169A309.544,309.544,0,0,1,192.118,264Zm-47.892,62.53A309.606,309.606,0,0,1,248,321.7v53.9a119.034,119.034,0,0,1-35.058-7.717A311.6,311.6,0,0,1,200.108,326.53ZM264,321.738a309.588,309.588,0,0,1,46.291,4.791,311.6,311.6,0,0,1-13.111,42.038A119,119,0,0,1,264,375.6Zm0-16V264h54.281a309.672,309.672,0,0,1-4.767,46.857A325.686,325.686,0,0,0,264,305.733ZM264,248V206.289a325.768,325.768,0,0,0,49.542-5A309.629,309.629,0,0,1,318.281,248Zm-71.585-93.585c-3.012,9.134-5.775,18.323-7.943,27.624-6.212-1.474-12.371-3.236-18.507-5.11A120.726,120.726,0,0,1,192.415,154.415ZM176.11,248H136.405a119.14,119.14,0,0,1,19.2-57.537c8.485,2.734,17.024,5.232,25.647,7.264A325.539,325.539,0,0,0,176.11,248Zm5.1,66.082c-8.655,2.018-17.228,4.5-25.747,7.229A119.122,119.122,0,0,1,136.405,264H176.11A325.674,325.674,0,0,0,181.211,314.082Zm-15.423,20.8c6.178-1.876,12.38-3.639,18.636-5.106,2.177,9.365,4.958,18.617,7.991,27.814A120.718,120.718,0,0,1,165.788,334.877Zm151.775,23.938c3.208-9.6,6.138-19.262,8.412-29.046,6.68,1.566,13.3,3.459,19.895,5.484A120.7,120.7,0,0,1,317.563,358.815Z" style="fill:#8aced8"/><path d="M200,56H88A24,24,0,0,0,64,80v72.62a32,32,0,0,0,12.01,24.988L104,200V168h96a24,24,0,0,0,24-24V80A24,24,0,0,0,200,56Z" style="fill:#f7ba61"/><circle cx="144" cy="108" r="12" style="fill:#ea9d2d"/><circle cx="188" cy="108" r="12" style="fill:#ea9d2d"/><circle cx="100" cy="108" r="12" style="fill:#ea9d2d"/><path d="M312,464H424a24,24,0,0,0,24-24V367.38a32,32,0,0,0-12.01-24.988L408,320v32H312a24,24,0,0,0-24,24v64A24,24,0,0,0,312,464Z" style="fill:#6cbae5"/><circle cx="368" cy="412" r="12" style="fill:#4799cf"/><circle cx="412" cy="412" r="12" style="fill:#4799cf"/><circle cx="324" cy="412" r="12" style="fill:#4799cf"/><path d="M71.008,183.859,99,206.25A8,8,0,0,0,112,200V176h34c-.1.146-.226.283-.329.43a136.11,136.11,0,0,0,57.883,205.109c.211.086.429.164.648.234A135.616,135.616,0,0,0,256,392a137.9,137.9,0,0,0,24-2.129V440a32.032,32.032,0,0,0,32,32H424a32.032,32.032,0,0,0,32-32V367.383a39.852,39.852,0,0,0-15.008-31.242L413,313.75A8,8,0,0,0,400,320v24H359.5c2.225-2.613,4.472-5.211,6.491-7.976.031-.04.064-.076.1-.117s.057-.067.083-.1A136.03,136.03,0,0,0,256,120a137.9,137.9,0,0,0-24,2.129V80a32.032,32.032,0,0,0-32-32H88A32.032,32.032,0,0,0,56,80v72.617A39.852,39.852,0,0,0,71.008,183.859ZM408,360a8,8,0,0,0,8-8V336.641l14.992,11.992A23.906,23.906,0,0,1,440,367.383V440a16.021,16.021,0,0,1-16,16H312a16.021,16.021,0,0,1-16-16V376a16.021,16.021,0,0,1,16-16Zm-85.725-16q1.952-7.046,3.563-14.112Q335.9,332.2,346,335.273c-2.692,3.055-5.56,5.948-8.55,8.727Zm34.063-22.282q-13.658-4.4-27.277-7.5A324.916,324.916,0,0,0,334.2,264h41.5A119.068,119.068,0,0,1,356.338,321.718Zm.145-131.214A118.789,118.789,0,0,1,375.691,248H334.2a323.384,323.384,0,0,0-5.125-50.036Q342.938,194.822,356.483,190.5Zm-10.277-13.583q-10.067,3.023-20.317,5.362-3.323-14.64-8.128-29.137A119.3,119.3,0,0,1,346.206,176.921ZM264,136.314a119.479,119.479,0,0,1,33.258,7.09,298.5,298.5,0,0,1,12.961,42.11A310.41,310.41,0,0,1,264,190.167Zm0,69.881a326.175,326.175,0,0,0,49.4-5,307.007,307.007,0,0,1,4.8,46.8H264ZM264,264H318.2a308.575,308.575,0,0,1-4.8,46.941A326.084,326.084,0,0,0,264,305.829Zm0,57.831a310.731,310.731,0,0,1,46.176,4.783q-2.089,9.087-4.726,18.071a31.955,31.955,0,0,0-25.195,28.8A118.573,118.573,0,0,1,264,375.64ZM155.512,190.512q12.942,4.15,25.833,7.111A325.253,325.253,0,0,0,176.2,248H136.309A118.879,118.879,0,0,1,155.512,190.512Zm10.257-13.577q.415-.468.838-.935h19.317c-.5,2-.951,3.96-1.406,5.941Q175.164,179.765,165.769,176.935ZM155.384,321.26A118.849,118.849,0,0,1,136.308,264h39.9a324.516,324.516,0,0,0,5.138,50.2Q168.435,317.155,155.384,321.26Zm10.259,13.609q9.494-2.819,18.891-4.982,3.207,14.038,7.67,27.719A120.364,120.364,0,0,1,165.643,334.869ZM248,375.671a121.547,121.547,0,0,1-35.183-7.794,298.271,298.271,0,0,1-12.623-41.254A302.426,302.426,0,0,1,248,321.765Zm0-69.86a332.354,332.354,0,0,0-50.989,5.142A307.941,307.941,0,0,1,192.2,264H248ZM248,248H192.2a308.706,308.706,0,0,1,4.8-47.084A325.631,325.631,0,0,0,248,206.191ZM232,144v-5.54a118.972,118.972,0,0,1,16-2.106v53.814a309.782,309.782,0,0,1-47.824-4.93q1.1-4.733,2.369-9.5A31.932,31.932,0,0,0,232,144ZM72,80A16.021,16.021,0,0,1,88,64H200a16.021,16.021,0,0,1,16,16v64a16.021,16.021,0,0,1-16,16H104a8,8,0,0,0-8,8v15.359L81.008,171.367A23.906,23.906,0,0,1,72,152.617Z"/><circle cx="144" cy="108" r="12"/><circle cx="188" cy="108" r="12"/><circle cx="100" cy="108" r="12"/><circle cx="368" cy="412" r="12"/><circle cx="412" cy="412" r="12"/><circle cx="324" cy="412" r="12"/></g></svg>
