<?xml version="1.0" encoding="UTF-8" standalone="no"?>
<svg
   xmlns:dc="http://purl.org/dc/elements/1.1/"
   xmlns:cc="http://creativecommons.org/ns#"
   xmlns:rdf="http://www.w3.org/1999/02/22-rdf-syntax-ns#"
   xmlns:svg="http://www.w3.org/2000/svg"
   xmlns="http://www.w3.org/2000/svg"
   xmlns:sodipodi="http://sodipodi.sourceforge.net/DTD/sodipodi-0.dtd"
   xmlns:inkscape="http://www.inkscape.org/namespaces/inkscape"
   version="1.1"
   id="svg2"
   xml:space="preserve"
   width="549.46667"
   height="388.30667"
   viewBox="0 0 549.46667 388.30667"
   sodipodi:docname="EEA_grants_White.eps"><metadata
     id="metadata8"><rdf:RDF><cc:Work
         rdf:about=""><dc:format>image/svg+xml</dc:format><dc:type
           rdf:resource="http://purl.org/dc/dcmitype/StillImage" /></cc:Work></rdf:RDF></metadata><defs
     id="defs6" /><sodipodi:namedview
     pagecolor="#ffffff"
     bordercolor="#666666"
     borderopacity="1"
     objecttolerance="10"
     gridtolerance="10"
     guidetolerance="10"
     inkscape:pageopacity="0"
     inkscape:pageshadow="2"
     inkscape:window-width="640"
     inkscape:window-height="480"
     id="namedview4" /><g
     id="g10"
     inkscape:groupmode="layer"
     inkscape:label="ink_ext_XXXXXX"
     transform="matrix(1.3333333,0,0,-1.3333333,0,388.30667)"><g
       id="g12"
       transform="scale(0.1)"><path
         d="m 4050.24,1968.48 h -308.36 v 308.37 h 308.36 z"
         style="fill:none;stroke:#ffffff;stroke-width:37.4912;stroke-linecap:round;stroke-linejoin:round;stroke-miterlimit:10;stroke-dasharray:none;stroke-opacity:1"
         id="path14" /><path
         d="m 3125.16,1968.48 h -308.37 v 308.37 z"
         style="fill:none;stroke:#ffffff;stroke-width:37.4912;stroke-linecap:round;stroke-linejoin:round;stroke-miterlimit:10;stroke-dasharray:none;stroke-opacity:1"
         id="path16" /><path
         d="m 2508.43,2276.85 v -616.73 h 308.36 v 616.73 z"
         style="fill:none;stroke:#ffffff;stroke-width:37.4912;stroke-linecap:round;stroke-linejoin:round;stroke-miterlimit:10;stroke-dasharray:none;stroke-opacity:1"
         id="path18" /><path
         d="m 3125.16,2585.21 v -616.73 l 308.36,-308.36 v 925.09 z"
         style="fill:none;stroke:#ffffff;stroke-width:37.4912;stroke-linecap:round;stroke-linejoin:round;stroke-miterlimit:10;stroke-dasharray:none;stroke-opacity:1"
         id="path20" /><path
         d="m 3433.52,2893.57 v -925.09 h 308.36 v 925.09 z"
         style="fill:none;stroke:#ffffff;stroke-width:37.4912;stroke-linecap:round;stroke-linejoin:round;stroke-miterlimit:10;stroke-dasharray:none;stroke-opacity:1"
         id="path22" /><path
         d="m 91.2109,2101.75 v -459.7 H 0 v 459.7 h 91.2109"
         style="fill:#ffffff;fill-opacity:1;fill-rule:nonzero;stroke:none"
         id="path24" /><path
         d="m 320.313,1972.59 c 95.585,0 148.125,-62.75 155.417,-140.09 l -73.699,-5.11 c -6.562,48.16 -33.554,78.07 -81.718,78.07 -48.165,0 -81.719,-35.75 -81.719,-102.88 0,-66.4 33.554,-102.15 81.719,-102.15 48.164,0 75.156,30.64 81.718,79.53 l 73.699,-6.57 c -7.292,-77.34 -59.832,-140.09 -155.417,-140.09 -99.239,0 -170.02,67.13 -170.02,169.28 0,102.15 70.781,170.01 170.02,170.01"
         style="fill:#ffffff;fill-opacity:1;fill-rule:nonzero;stroke:none"
         id="path26" /><path
         d="m 755.898,1835.42 c -2.91,37.21 -25.539,72.96 -74.421,72.96 -48.157,0 -72.239,-32.83 -80.266,-72.96 z m 83.184,-88.3 c -16.777,-71.5 -72.234,-113.82 -154.687,-113.82 -99.239,0 -170.743,63.48 -170.743,164.9 0,101.42 72.239,174.39 168.555,174.39 105.066,0 159.063,-72.97 159.063,-160.52 v -31.38 H 599.746 c 2.93,-47.43 40.137,-80.99 87.567,-80.99 43.046,0 68.585,18.23 80.988,54.72 l 70.781,-7.3"
         style="fill:#ffffff;fill-opacity:1;fill-rule:nonzero;stroke:none"
         id="path28" /><path
         d="m 985,2101.75 v -459.7 h -87.559 v 459.7 H 985"
         style="fill:#ffffff;fill-opacity:1;fill-rule:nonzero;stroke:none"
         id="path30" /><path
         d="m 1252.05,1789.44 -60.57,-13.13 c -37.94,-8.02 -64.94,-14.59 -64.94,-46.7 0,-21.89 16.79,-35.02 44.51,-35.02 45.98,0 81,35.02 81,86.83 z m 85.37,-69.31 c 0,-16.79 8.76,-24.81 22.62,-24.81 8.76,0 17.52,2.19 27,6.56 v -46.69 c -13.86,-10.95 -31.38,-20.43 -60.56,-20.43 -36.48,0 -59.84,21.15 -67.87,56.18 -18.24,-37.21 -62.01,-56.92 -109.44,-56.92 -67.13,0 -108,33.57 -108,89.03 0,61.29 49.62,86.83 122.59,101.42 l 88.29,17.51 v 7.3 c 0,35.75 -18.96,57.64 -56.18,57.64 -36.49,0 -56.18,-21.89 -63.49,-53.26 l -79.53,7.29 c 10.95,65.68 61.29,111.64 146.66,111.64 83.19,0 137.91,-39.39 137.91,-124.04 v -128.42"
         style="fill:#ffffff;fill-opacity:1;fill-rule:nonzero;stroke:none"
         id="path32" /><path
         d="m 1516.17,1642.05 h -87.56 v 321.79 h 87.56 v -52.54 c 16.06,36.48 56.92,61.29 105.08,61.29 86.09,0 117.47,-58.37 117.47,-129.88 v -200.66 h -87.56 v 183.15 c 0,49.62 -19.7,78.08 -62.75,78.08 -44.51,0 -72.24,-35.03 -72.24,-89.03 v -172.2"
         style="fill:#ffffff;fill-opacity:1;fill-rule:nonzero;stroke:none"
         id="path34" /><path
         d="m 2046.62,1809.15 c 0,58.37 -35.75,94.85 -85.37,94.85 -54.73,0 -83.18,-40.13 -83.18,-101.42 0,-60.56 28.45,-100.7 83.18,-100.7 49.62,0 85.37,35.76 85.37,94.86 z m -0.72,-105.81 c -14.59,-38.67 -54.01,-70.04 -110.92,-70.04 -95.59,0 -145.19,74.42 -145.19,169.28 0,94.86 49.6,170.01 145.19,170.01 56.91,0 96.33,-31.38 110.92,-70.77 v 199.93 h 87.56 v -459.7 h -87.56 v 61.29"
         style="fill:#ffffff;fill-opacity:1;fill-rule:nonzero;stroke:none"
         id="path36" /><path
         d="M 91.2109,1347.12 V 963.32 H 334.188 V 887.43 H 0 v 459.69 h 91.2109"
         style="fill:#ffffff;fill-opacity:1;fill-rule:nonzero;stroke:none"
         id="path38" /><path
         d="M 478.645,1209.21 V 887.43 h -87.559 v 321.78 z m -89.016,137.91 h 89.746 v -85.37 h -89.746 v 85.37"
         style="fill:#ffffff;fill-opacity:1;fill-rule:nonzero;stroke:none"
         id="path40" /><path
         d="m 777.07,1080.79 c -2.922,37.21 -25.539,72.97 -74.433,72.97 -48.157,0 -72.227,-32.84 -80.254,-72.97 z m 83.184,-88.278 C 843.469,920.988 788.008,878.68 705.566,878.68 c -99.238,0 -170.753,63.468 -170.753,164.9 0,101.42 72.238,174.39 168.554,174.39 105.078,0 159.074,-72.97 159.074,-160.52 v -31.39 H 620.918 c 2.922,-47.419 40.137,-80.99 87.559,-80.99 43.054,0 68.593,18.25 80.996,54.719 l 70.781,-7.277"
         style="fill:#ffffff;fill-opacity:1;fill-rule:nonzero;stroke:none"
         id="path42" /><path
         d="m 1074.02,1217.97 c 95.59,0 148.13,-62.75 155.43,-140.1 l -73.7,-5.11 c -6.57,48.16 -33.56,78.08 -81.73,78.08 -48.15,0 -81.715,-35.76 -81.715,-102.89 0,-66.399 33.565,-102.141 81.715,-102.141 48.17,0 75.16,30.64 81.73,79.531 l 73.7,-6.57 c -7.3,-77.348 -59.84,-140.09 -155.43,-140.09 -99.223,0 -170.004,67.129 -170.004,169.27 0,102.16 70.781,170.02 170.004,170.02"
         style="fill:#ffffff;fill-opacity:1;fill-rule:nonzero;stroke:none"
         id="path44" /><path
         d="m 1372.44,887.43 h -87.56 v 459.69 h 87.56 v -190.44 c 16.06,36.48 56.92,61.29 105.08,61.29 86.09,0 117.47,-58.38 117.47,-129.88 V 887.43 h -87.56 v 183.14 c 0,49.63 -19.7,78.08 -62.75,78.08 -44.51,0 -72.24,-35.02 -72.24,-89.02 v -172.2"
         style="fill:#ffffff;fill-opacity:1;fill-rule:nonzero;stroke:none"
         id="path46" /><path
         d="m 1677.42,1147.92 h -45.96 v 51.81 l 21.89,3.64 c 31.38,5.11 40.13,21.17 47.43,51.08 l 10.22,43.78 h 53.26 v -89.02 h 87.56 v -61.29 h -87.56 V 988.852 c 0,-27.731 12.4,-40.133 38.67,-40.133 17.51,0 35.75,6.57 54.73,15.332 v -57.66 c -23.35,-17.5 -49.62,-27.711 -89.03,-27.711 -49.61,0 -91.21,21.879 -91.21,90.468 v 178.772"
         style="fill:#ffffff;fill-opacity:1;fill-rule:nonzero;stroke:none"
         id="path48" /><path
         d="m 2130.53,1080.79 c -2.91,37.21 -25.53,72.97 -74.43,72.97 -48.15,0 -72.23,-32.84 -80.26,-72.97 z m 83.18,-88.278 c -16.78,-71.524 -72.23,-113.832 -154.69,-113.832 -99.23,0 -170.74,63.468 -170.74,164.9 0,101.42 72.24,174.39 168.56,174.39 105.07,0 159.07,-72.97 159.07,-160.52 v -31.39 h -241.53 c 2.92,-47.419 40.13,-80.99 87.56,-80.99 43.06,0 68.59,18.25 81,54.719 l 70.77,-7.277"
         style="fill:#ffffff;fill-opacity:1;fill-rule:nonzero;stroke:none"
         id="path50" /><path
         d="m 2361.09,887.43 h -87.55 v 321.78 h 87.55 v -52.53 c 16.06,36.48 56.92,61.29 105.08,61.29 86.1,0 117.48,-58.38 117.48,-129.88 V 887.43 h -87.57 v 183.14 c 0,49.63 -19.69,78.08 -62.75,78.08 -44.5,0 -72.24,-35.02 -72.24,-89.02 v -172.2"
         style="fill:#ffffff;fill-opacity:1;fill-rule:nonzero;stroke:none"
         id="path52" /><path
         d="m 2707.68,996.879 c 5.1,-38.668 34.29,-58.379 78.79,-58.379 32.11,0 58.38,10.949 58.38,34.301 0,21.89 -14.6,31.379 -46.7,36.479 l -51.08,8.75 c -68.58,10.96 -106.52,36.49 -106.52,96.33 0,61.29 51.79,103.61 133.52,103.61 89.03,0 142.29,-40.13 148.13,-111.64 l -72.24,-2.92 c -5.84,36.48 -30.64,54.72 -76.62,54.72 -31.37,0 -51.81,-13.86 -51.81,-35.75 0,-17.51 11.68,-27.73 35.03,-31.37 l 61.29,-10.22 c 67.86,-10.94 107.99,-39.4 107.99,-99.962 0,-65.668 -56.91,-102.148 -140.1,-102.148 -83.9,0 -148.11,36.48 -153.95,115.281 l 75.89,2.918"
         style="fill:#ffffff;fill-opacity:1;fill-rule:nonzero;stroke:none"
         id="path54" /><path
         d="m 2992.96,1147.92 h -45.97 v 51.81 l 21.89,3.64 c 31.37,5.11 40.13,21.17 47.43,51.08 l 10.21,43.78 h 53.27 v -89.02 h 87.56 v -61.29 h -87.56 V 988.852 c 0,-27.731 12.41,-40.133 38.67,-40.133 17.52,0 35.76,6.57 54.72,15.332 v -57.66 c -23.34,-17.5 -49.61,-27.711 -89.01,-27.711 -49.62,0 -91.21,21.879 -91.21,90.468 v 178.772"
         style="fill:#ffffff;fill-opacity:1;fill-rule:nonzero;stroke:none"
         id="path56" /><path
         d="m 3446.06,1080.79 c -2.92,37.21 -25.53,72.97 -74.42,72.97 -48.16,0 -72.24,-32.84 -80.26,-72.97 z m 83.19,-88.278 c -16.78,-71.524 -72.24,-113.832 -154.69,-113.832 -99.24,0 -170.74,63.468 -170.74,164.9 0,101.42 72.23,174.39 168.55,174.39 105.07,0 159.08,-72.97 159.08,-160.52 v -31.39 h -241.53 c 2.91,-47.419 40.13,-80.99 87.56,-80.99 43.05,0 68.58,18.25 81,54.719 l 70.77,-7.277"
         style="fill:#ffffff;fill-opacity:1;fill-rule:nonzero;stroke:none"
         id="path58" /><path
         d="M 3676.63,1209.21 V 887.43 h -87.56 v 321.78 z m -89.02,137.91 h 89.75 v -85.37 h -89.75 v 85.37"
         style="fill:#ffffff;fill-opacity:1;fill-rule:nonzero;stroke:none"
         id="path60" /><path
         d="m 3839.34,887.43 h -87.56 v 321.78 h 87.56 v -52.53 c 16.05,36.48 56.91,61.29 105.07,61.29 86.1,0 117.47,-58.38 117.47,-129.88 V 887.43 h -87.55 v 183.14 c 0,49.63 -19.7,78.08 -62.76,78.08 -44.51,0 -72.23,-35.02 -72.23,-89.02 v -172.2"
         style="fill:#ffffff;fill-opacity:1;fill-rule:nonzero;stroke:none"
         id="path62" /><path
         d="M 307.922,286.031 V 592.5 h 84.637 V 132.801 H 319.59 L 84.6406,456.77 V 132.801 H 0 V 592.5 H 90.4766 L 307.922,286.031"
         style="fill:#ffffff;fill-opacity:1;fill-rule:nonzero;stroke:none"
         id="path64" /><path
         d="m 620.195,190.441 c 54.004,0 81.731,42.321 81.731,102.891 0,61.277 -27.727,103.609 -81.731,103.609 -53.261,0 -80.996,-42.332 -80.996,-103.609 0,-60.57 27.735,-102.891 80.996,-102.891 z m 0,-66.39 c -99.238,0 -169.277,69.308 -169.277,169.281 0,99.957 70.039,170.008 169.277,170.008 99.973,0 170.02,-70.051 170.02,-170.008 0,-99.973 -70.047,-169.281 -170.02,-169.281"
         style="fill:#ffffff;fill-opacity:1;fill-rule:nonzero;stroke:none"
         id="path66" /><path
         d="m 1061.64,368.48 c -16.79,9.489 -31.39,13.872 -52.54,13.872 -45.245,0 -75.885,-32.114 -75.885,-90.493 V 132.801 H 845.652 V 454.59 h 87.563 v -61.301 c 11.668,36.481 45.242,70.051 89.745,70.051 19.71,0 35.75,-5.11 45.24,-13.141 l -6.56,-81.719"
         style="fill:#ffffff;fill-opacity:1;fill-rule:nonzero;stroke:none"
         id="path68" /><path
         d="m 1426.45,240.059 h 2.93 l 66.39,214.531 h 79.53 L 1473.14,132.801 h -84.63 l -58.37,212.328 h -2.92 l -58.37,-212.328 h -85.38 L 1081.32,454.59 h 86.82 l 67.13,-214.531 h 2.92 l 58.38,214.531 h 70.77 l 59.11,-214.531"
         style="fill:#ffffff;fill-opacity:1;fill-rule:nonzero;stroke:none"
         id="path70" /><path
         d="m 1802.21,280.191 -60.56,-13.132 c -37.94,-8.028 -64.94,-14.59 -64.94,-46.7 0,-21.898 16.79,-35.019 44.51,-35.019 45.97,0 80.99,35.019 80.99,86.828 z m 85.38,-69.32 c 0,-16.781 8.75,-24.812 22.62,-24.812 8.75,0 17.5,2.191 27,6.57 V 145.93 c -13.87,-10.942 -31.38,-20.43 -60.57,-20.43 -36.48,0 -59.83,21.172 -67.86,56.18 -18.24,-37.2 -62.02,-56.91 -109.45,-56.91 -67.13,0 -107.99,33.57 -107.99,89.019 0,61.289 49.62,86.84 122.59,101.43 l 88.28,17.511 v 7.29 c 0,35.769 -18.97,57.652 -56.18,57.652 -36.49,0 -56.19,-21.883 -63.48,-53.274 l -79.54,7.301 c 10.95,65.672 61.3,111.641 146.67,111.641 83.18,0 137.91,-39.399 137.91,-124.039 v -128.43"
         style="fill:#ffffff;fill-opacity:1;fill-rule:nonzero;stroke:none"
         id="path72" /><path
         d="m 2012.34,13.1289 49.61,118.1991 -133.52,323.262 h 91.94 l 87.56,-219.641 h 2.91 l 86.84,219.641 h 85.37 L 2098.44,13.1289 h -86.1"
         style="fill:#ffffff;fill-opacity:1;fill-rule:nonzero;stroke:none"
         id="path74" /><path
         d="m 2539.13,427.578 c -51.07,0 -81.73,-28.449 -81.73,-77.34 0,-48.148 30.66,-76.617 81.73,-76.617 52.54,0 83.18,28.469 83.18,76.617 0,48.891 -30.64,77.34 -83.18,77.34 z M 2533.3,32.1016 c 78.8,0 134.98,18.9765 134.98,73.7074 0,33.55 -28.46,45.953 -70.78,45.953 h -99.96 c -38.67,0 -72.24,-12.403 -72.24,-53.262 0,-46.6992 44.51,-66.3984 108,-66.3984 z m 5.83,211.6094 c -26.27,0 -49.62,4.379 -69.32,13.859 -13.13,-6.57 -26.27,-19.691 -26.27,-36.48 0,-19.699 10.95,-29.91 41.6,-29.91 h 122.58 c 67.87,0 103.62,-35.032 103.62,-83.918 C 2711.34,29.1797 2625.97,0 2533.3,0 c -83.92,0 -153.24,29.1797 -153.24,87.5586 0,38.6794 27,62.7504 67.13,71.5114 -29.18,8.75 -40.86,28.45 -40.86,51.801 0,27.008 18.97,45.25 44.51,58.367 -24.8,18.25 -39.4,46.703 -39.4,81.731 0,66.402 53.27,107.261 127.69,107.261 40.87,0 75.89,-12.402 98.51,-35.019 16.78,25.539 44.51,43.051 78.07,43.051 v -43.051 c -24.08,0 -49.62,-6.563 -64.94,-15.32 10.95,-16.063 16.79,-35.032 16.79,-56.922 0,-66.387 -54.01,-107.258 -128.43,-107.258"
         style="fill:#ffffff;fill-opacity:1;fill-rule:nonzero;stroke:none"
         id="path76" /><path
         d="m 2931.67,404.969 c -18.24,9.492 -29.19,12.402 -48.15,12.402 -45.98,0 -83.19,-47.422 -83.19,-110.91 v -173.66 h -44.51 V 449.48 h 44.51 v -66.41 c 12.4,36.489 44.51,75.16 91.21,75.16 19.7,0 33.56,-4.378 45.24,-14.589 l -5.11,-38.672"
         style="fill:#ffffff;fill-opacity:1;fill-rule:nonzero;stroke:none"
         id="path78" /><path
         d="m 3178.29,296.25 -77.34,-16.789 c -57.65,-12.402 -93.4,-24.07 -93.4,-66.402 0,-29.911 19.7,-54.719 61.29,-54.719 62.02,0 109.45,47.43 109.45,118.211 z m 42.33,-110.191 c 0,-16.778 10.21,-24.797 26.26,-24.797 7.3,0 19.7,2.918 28.45,8.019 v -24.082 c -9.48,-10.937 -19.7,-18.961 -41.58,-18.961 -31.38,0 -54,26.992 -55.46,67.121 -16.79,-37.211 -63.49,-69.308 -117.48,-69.308 -59.1,0 -98.51,32.828 -98.51,87.558 0,59.821 52.54,83.903 131.35,99.961 l 84.64,17.52 v 16.039 c 0,48.16 -28.46,78.082 -78.08,78.082 -51.07,0 -79.53,-29.922 -90.47,-70.781 l -37.94,7.3 c 12.4,56.918 59.1,98.5 127.69,98.5 78.8,0 121.13,-41.582 121.13,-119.671 v -152.5"
         style="fill:#ffffff;fill-opacity:1;fill-rule:nonzero;stroke:none"
         id="path80" /><path
         d="m 3366.53,132.801 h -44.51 V 449.48 h 44.51 v -58.378 c 15.33,38.668 59.1,67.128 106.54,67.128 81.72,0 116.01,-53.261 116.01,-129.14 V 132.801 h -44.51 v 197.738 c 0,56.18 -29.19,92.672 -83.18,92.672 -50.35,0 -94.86,-39.41 -94.86,-100.691 V 132.801"
         style="fill:#ffffff;fill-opacity:1;fill-rule:nonzero;stroke:none"
         id="path82" /><path
         d="m 3680.26,416.648 h -48.88 v 21.883 l 18.97,3.649 c 29.18,5.832 35.02,19.699 41.59,50.34 l 9.49,45.25 h 22.61 v -88.29 h 91.95 v -32.832 h -91.95 V 202.109 c 0,-28.449 11.68,-42.32 40.86,-42.32 21.9,0 43.79,10.961 62.03,21.891 v -31.371 c -22.62,-17.508 -45.24,-26.258 -77.34,-26.258 -42.32,0 -69.33,21.148 -69.33,78.801 v 213.796"
         style="fill:#ffffff;fill-opacity:1;fill-rule:nonzero;stroke:none"
         id="path84" /><path
         d="m 3891.12,244.441 c 6.57,-54.73 43.78,-85.371 104.35,-85.371 48.89,0 83.18,18.239 83.18,55.45 0,35.031 -24.81,45.968 -69.32,54 L 3954.6,278 c -55.45,9.488 -89.75,35.031 -89.75,86.109 0,56.911 47.44,94.121 116.75,94.121 81.72,0 129.15,-38.671 134.26,-113.832 l -34.3,-2.91 c -8.02,56.91 -41.58,81.723 -99.96,81.723 -45.23,0 -75.15,-20.43 -75.15,-54 0,-30.652 18.24,-45.961 57.64,-52.531 l 58.37,-9.489 c 62.02,-10.211 98.51,-32.113 98.51,-88.293 0,-62.019 -55.46,-94.847 -124.78,-94.847 -76.61,0 -135.72,37.937 -140.82,116.008 l 35.75,4.382"
         style="fill:#ffffff;fill-opacity:1;fill-rule:nonzero;stroke:none"
         id="path86" /></g></g></svg>
