<?xml version="1.0" encoding="UTF-8" standalone="no"?>
<svg
   width="1600px"
   height="1200px"
   viewBox="0 0 1600 1200"
   version="1.1"
   id="svg27"
   sodipodi:docname="Mataura.svg"
   inkscape:version="1.1 (c4e8f9e, 2021-05-24)"
   xmlns:inkscape="http://www.inkscape.org/namespaces/inkscape"
   xmlns:sodipodi="http://sodipodi.sourceforge.net/DTD/sodipodi-0.dtd"
   xmlns="http://www.w3.org/2000/svg"
   xmlns:svg="http://www.w3.org/2000/svg">
  <defs
     id="defs31" />
  <sodipodi:namedview
     id="namedview29"
     pagecolor="#505050"
     bordercolor="#eeeeee"
     borderopacity="1"
     inkscape:pageshadow="0"
     inkscape:pageopacity="0"
     inkscape:pagecheckerboard="0"
     showgrid="false"
     inkscape:zoom="0.37083429"
     inkscape:cx="705.16672"
     inkscape:cy="637.75116"
     inkscape:window-width="1680"
     inkscape:window-height="1050"
     inkscape:window-x="0"
     inkscape:window-y="0"
     inkscape:window-maximized="0"
     inkscape:current-layer="svg27" />
  <!-- Generator: Sketch 55.2 (78181) - https://sketchapp.com -->
  <title
     id="title2">Mataura</title>
  <desc
     id="desc4">Created with Sketch.</desc>
  <g
     id="Patterns"
     stroke="none"
     stroke-width="1"
     fill="none"
     fill-rule="evenodd"
     transform="matrix(0.08538961,0.31867836,-0.31867836,0.08538961,1427.9254,425.66083)">
    <g
       id="Mataura"
       fill-rule="nonzero">
      <g
         transform="translate(-590,-735)"
         id="Shape">
        <rect
           fill="#f83c1e"
           transform="rotate(43,1388,2435.5)"
           x="745"
           y="1758"
           width="1286"
           height="1355"
           id="rect6" />
        <path
           d="m 667,1101.5655 c 143.04175,0 259,-115.95826 259,-259.00001 0,-137.04974 -106.75995,-250.15473 -242.9236,-258.50821 -16.53746,-1.01455 -30.76616,11.56924 -31.78072,28.1067 -1.01455,16.53745 11.56924,30.76616 28.10669,31.78071 C 783.96194,650.35929 866,737.2731 866,842.56549 c 0,109.90466 -89.09533,199.00001 -199,199.00001 -16.56854,0 -30,13.4315 -30,30 0,16.5685 13.43146,30 30,30 z"
           fill="#423783"
           transform="matrix(-1,0,0,1,1563,0)"
           id="path8" />
        <rect
           fill="#2c99b0"
           transform="rotate(43,2029,1267.5)"
           x="1200"
           y="590"
           width="1658"
           height="1355"
           id="rect10" />
        <path
           d="m 966.23317,1594.781 c -15.87375,7.1189 -34.51297,0.022 -41.63186,-15.8521 -7.11889,-15.8737 -0.0217,-34.5129 15.85208,-41.6318 97.49341,-43.7229 182.28221,-112.0884 245.92301,-197.9171 8.7383,-11.7847 24.4552,-15.9767 37.9016,-10.109 19.9074,8.687 41.4672,13.229 63.722,13.229 88.0894,0 159.5,-71.4106 159.5,-159.5 0,-57.7559 -30.9303,-110.0843 -80.1048,-138.3725 -25.3295,-14.5711 -18.8887,-52.78522 9.8176,-58.24891 C 1539.3703,955.51502 1658.5,813.07588 1658.5,646 c 0,-191.36667 -155.1333,-346.5 -346.5,-346.5 -105.1692,0 -202.563,47.10189 -268.0127,126.86587 -11.0354,13.44894 -30.884,15.40549 -44.33289,4.37006 -13.44894,-11.03542 -15.40549,-30.88392 -4.37006,-44.33286 C 1072.5762,292.20695 1187.7629,236.5 1312,236.5 c 226.1606,0 409.5,183.3394 409.5,409.5 0,197.46498 -140.7654,365.7731 -332.5078,402.2676 l 9.8175,-58.24897 C 1467.3311,1029.4364 1510.5,1102.4702 1510.5,1183 c 0,122.8834 -99.6166,222.5 -222.5,222.5 -30.9673,0 -61.101,-6.3482 -88.9191,-18.4873 l 12.5986,-28.8709 25.303,18.7619 c -70.0518,94.4748 -163.3794,169.7252 -270.74933,217.8773 z M 1035.7285,379.30544 c 14.9554,8.88777 19.8741,28.21643 10.9863,43.17177 -8.8877,14.95533 -28.2164,19.87406 -43.1717,10.98629 C 908.23796,376.82486 799.37701,346.5 686,346.5 342.19961,346.5 63.5,625.20587 63.5,969.02028 c 2.61e-4,8.17702 0.158012,16.33458 0.47246,24.46985 0.671934,17.38397 -12.875863,32.02117 -30.259851,32.69317 C 16.32862,1026.8552 1.6914028,1013.3074 1.0194688,995.92341 0.67371279,986.97816 0.50000034,978.01003 0.50000034,969.02128 0.50000034,590.41225 307.40535,283.5 686,283.5 c 124.78409,0 244.75098,33.41858 349.7285,95.80544 z"
           fill="#d0e215"
           id="path12" />
        <path
           d="m 2112.3143,1368 c 377.7627,0 684,-306.2372 684,-684 0,-377.76277 -306.2373,-684 -684,-684 -109.8396,0 -216.0233,25.936984 -311.6702,74.978817 -14.7434,7.559547 -20.5672,25.639713 -13.0076,40.383183 7.5595,14.74347 25.6397,20.56719 40.3832,13.00764 C 1915.2434,83.646654 2012.0507,60 2112.3143,60 c 344.6256,0 624,279.37432 624,624 0,344.6257 -279.3744,624 -624,624 -16.5686,0 -30,13.4315 -30,30 0,16.5685 13.4314,30 30,30 z M 1663.298,1199.9976 C 1786.9205,1307.6597 1944.9832,1368 2112.3143,1368 c 16.5685,0 30,-13.4315 30,-30 0,-16.5685 -13.4315,-30 -30,-30 -152.7066,0 -296.8109,-55.0116 -409.6114,-153.2489 -12.4945,-10.8814 -31.4444,-9.5737 -42.3257,2.9208 -10.8814,12.4945 -9.5737,31.4444 2.9208,42.3257 z"
           fill="#e95272"
           id="path14" />
        <rect
           fill="#f6b800"
           transform="rotate(43,1998,2087)"
           x="1355"
           y="1840"
           width="1286"
           height="494"
           id="rect16" />
        <circle
           fill="#423783"
           cx="611"
           cy="1434"
           r="250"
           id="circle18" />
        <circle
           fill="#2c99b0"
           cx="954"
           cy="1565"
           r="28"
           id="circle20" />
        <path
           d="m 1889.0517,948.72897 c -18.7776,0 -34,-15.22232 -34,-34 0,-18.77768 15.2224,-34 34,-34 18.7777,0 34,15.22232 34,34 0,18.77768 -15.2223,34 -34,34 z m 135.9236,-11.07643 c -18.7777,0 -34,-15.22232 -34,-34 0,-18.77768 15.2223,-34 34,-34 18.7777,0 34,15.22232 34,34 0,18.77768 -15.2223,34 -34,34 z m 153,0 c -18.7777,0 -34,-15.22232 -34,-34 0,-18.77768 15.2223,-34 34,-34 18.7777,0 34,15.22232 34,34 0,18.77768 -15.2223,34 -34,34 z m 163.8506,-0.1845 c -18.7777,0 -34,-15.22232 -34,-34 0,-18.77768 15.2223,-34 34,-34 18.7777,0 34,15.22232 34,34 0,18.77768 -15.2223,34 -34,34 z M 1889.0517,1057.729 c -9.3888,0 -17,-7.6112 -17,-17 0,-9.3889 7.6112,-17 17,-17 9.3889,0 17,7.6111 17,17 0,9.3888 -7.6111,17 -17,17 z m 151,0 c -9.3888,0 -17,-7.6112 -17,-17 0,-9.3889 7.6112,-17 17,-17 9.3889,0 17,7.6111 17,17 0,9.3888 -7.6111,17 -17,17 z m 151,0 c -9.3888,0 -17,-7.6112 -17,-17 0,-9.3889 7.6112,-17 17,-17 9.3889,0 17,7.6111 17,17 0,9.3888 -7.6111,17 -17,17 z m 150.7742,-0.082 c -9.3888,0 -17,-7.6112 -17,-17 0,-9.3889 7.6112,-17.0001 17,-17.0001 9.3888,0 17,7.6112 17,17.0001 0,9.3888 -7.6112,17 -17,17 z"
           fill="#ffeaab"
           transform="rotate(-45,2115.4388,963.5985)"
           id="path22" />
      </g>
    </g>
  </g>
  <g
     id="Patterns-9"
     stroke="none"
     stroke-width="1"
     fill="none"
     fill-rule="evenodd"
     transform="matrix(0.32992012,0,0,0.32992012,-185.35235,-92.413134)">
    <g
       id="Mataura-9"
       fill-rule="nonzero">
      <g
         transform="translate(-590,-735)"
         id="Shape-7">
        <rect
           fill="#f83c1e"
           transform="rotate(43,1388,2435.5)"
           x="745"
           y="1758"
           width="1286"
           height="1355"
           id="rect6-0"
           style="fill:#f8c01e;fill-opacity:1" />
        <path
           d="m 667,1101.5655 c 143.04175,0 259,-115.95826 259,-259.00001 0,-137.04974 -106.75995,-250.15473 -242.9236,-258.50821 -16.53746,-1.01455 -30.76616,11.56924 -31.78072,28.1067 -1.01455,16.53745 11.56924,30.76616 28.10669,31.78071 C 783.96194,650.35929 866,737.2731 866,842.56549 c 0,109.90466 -89.09533,199.00001 -199,199.00001 -16.56854,0 -30,13.4315 -30,30 0,16.5685 13.43146,30 30,30 z"
           fill="#423783"
           transform="matrix(-1,0,0,1,1563,0)"
           id="path8-3" />
        <rect
           fill="#2c99b0"
           transform="rotate(43,2029,1267.5)"
           x="1200"
           y="590"
           width="1658"
           height="1355"
           id="rect10-9"
           style="fill:#2c99ff;fill-opacity:1" />
        <path
           d="m 966.23317,1594.781 c -15.87375,7.1189 -34.51297,0.022 -41.63186,-15.8521 -7.11889,-15.8737 -0.0217,-34.5129 15.85208,-41.6318 97.49341,-43.7229 182.28221,-112.0884 245.92301,-197.9171 8.7383,-11.7847 24.4552,-15.9767 37.9016,-10.109 19.9074,8.687 41.4672,13.229 63.722,13.229 88.0894,0 159.5,-71.4106 159.5,-159.5 0,-57.7559 -30.9303,-110.0843 -80.1048,-138.3725 -25.3295,-14.5711 -18.8887,-52.78522 9.8176,-58.24891 C 1539.3703,955.51502 1658.5,813.07588 1658.5,646 c 0,-191.36667 -155.1333,-346.5 -346.5,-346.5 -105.1692,0 -202.563,47.10189 -268.0127,126.86587 -11.0354,13.44894 -30.884,15.40549 -44.33289,4.37006 -13.44894,-11.03542 -15.40549,-30.88392 -4.37006,-44.33286 C 1072.5762,292.20695 1187.7629,236.5 1312,236.5 c 226.1606,0 409.5,183.3394 409.5,409.5 0,197.46498 -140.7654,365.7731 -332.5078,402.2676 l 9.8175,-58.24897 C 1467.3311,1029.4364 1510.5,1102.4702 1510.5,1183 c 0,122.8834 -99.6166,222.5 -222.5,222.5 -30.9673,0 -61.101,-6.3482 -88.9191,-18.4873 l 12.5986,-28.8709 25.303,18.7619 c -70.0518,94.4748 -163.3794,169.7252 -270.74933,217.8773 z M 1035.7285,379.30544 c 14.9554,8.88777 19.8741,28.21643 10.9863,43.17177 -8.8877,14.95533 -28.2164,19.87406 -43.1717,10.98629 C 908.23796,376.82486 799.37701,346.5 686,346.5 342.19961,346.5 63.5,625.20587 63.5,969.02028 c 2.61e-4,8.17702 0.158012,16.33458 0.47246,24.46985 0.671934,17.38397 -12.875863,32.02117 -30.259851,32.69317 C 16.32862,1026.8552 1.6914028,1013.3074 1.0194688,995.92341 0.67371279,986.97816 0.50000034,978.01003 0.50000034,969.02128 0.50000034,590.41225 307.40535,283.5 686,283.5 c 124.78409,0 244.75098,33.41858 349.7285,95.80544 z"
           fill="#d0e215"
           id="path12-8"
           style="fill:#eb9fdf;fill-opacity:1" />
        <path
           d="m 2112.3143,1368 c 377.7627,0 684,-306.2372 684,-684 0,-377.76277 -306.2373,-684 -684,-684 -109.8396,0 -216.0233,25.936984 -311.6702,74.978817 -14.7434,7.559547 -20.5672,25.639713 -13.0076,40.383183 7.5595,14.74347 25.6397,20.56719 40.3832,13.00764 C 1915.2434,83.646654 2012.0507,60 2112.3143,60 c 344.6256,0 624,279.37432 624,624 0,344.6257 -279.3744,624 -624,624 -16.5686,0 -30,13.4315 -30,30 0,16.5685 13.4314,30 30,30 z M 1663.298,1199.9976 C 1786.9205,1307.6597 1944.9832,1368 2112.3143,1368 c 16.5685,0 30,-13.4315 30,-30 0,-16.5685 -13.4315,-30 -30,-30 -152.7066,0 -296.8109,-55.0116 -409.6114,-153.2489 -12.4945,-10.8814 -31.4444,-9.5737 -42.3257,2.9208 -10.8814,12.4945 -9.5737,31.4444 2.9208,42.3257 z"
           fill="#e95272"
           id="path14-6"
           style="fill:#004272;fill-opacity:1" />
        <rect
           fill="#f6b800"
           transform="rotate(43,1998,2087)"
           x="1355"
           y="1840"
           width="1286"
           height="494"
           id="rect16-5"
           style="fill:#f65300;fill-opacity:1" />
        <circle
           fill="#423783"
           cx="611"
           cy="1434"
           r="250"
           id="circle18-7" />
        <circle
           fill="#2c99b0"
           cx="954"
           cy="1565"
           r="28"
           id="circle20-6" />
        <path
           d="m 1889.0517,948.72897 c -18.7776,0 -34,-15.22232 -34,-34 0,-18.77768 15.2224,-34 34,-34 18.7777,0 34,15.22232 34,34 0,18.77768 -15.2223,34 -34,34 z m 135.9236,-11.07643 c -18.7777,0 -34,-15.22232 -34,-34 0,-18.77768 15.2223,-34 34,-34 18.7777,0 34,15.22232 34,34 0,18.77768 -15.2223,34 -34,34 z m 153,0 c -18.7777,0 -34,-15.22232 -34,-34 0,-18.77768 15.2223,-34 34,-34 18.7777,0 34,15.22232 34,34 0,18.77768 -15.2223,34 -34,34 z m 163.8506,-0.1845 c -18.7777,0 -34,-15.22232 -34,-34 0,-18.77768 15.2223,-34 34,-34 18.7777,0 34,15.22232 34,34 0,18.77768 -15.2223,34 -34,34 z M 1889.0517,1057.729 c -9.3888,0 -17,-7.6112 -17,-17 0,-9.3889 7.6112,-17 17,-17 9.3889,0 17,7.6111 17,17 0,9.3888 -7.6111,17 -17,17 z m 151,0 c -9.3888,0 -17,-7.6112 -17,-17 0,-9.3889 7.6112,-17 17,-17 9.3889,0 17,7.6111 17,17 0,9.3888 -7.6111,17 -17,17 z m 151,0 c -9.3888,0 -17,-7.6112 -17,-17 0,-9.3889 7.6112,-17 17,-17 9.3889,0 17,7.6111 17,17 0,9.3888 -7.6111,17 -17,17 z m 150.7742,-0.082 c -9.3888,0 -17,-7.6112 -17,-17 0,-9.3889 7.6112,-17.0001 17,-17.0001 9.3888,0 17,7.6112 17,17.0001 0,9.3888 -7.6112,17 -17,17 z"
           fill="#ffeaab"
           transform="rotate(-45,2115.4388,963.5985)"
           id="path22-2" />
      </g>
    </g>
  </g>
</svg>
