<svg id="Capa_1" enable-background="new 0 0 512 512" height="512" viewBox="0 0 512 512" width="512" xmlns="http://www.w3.org/2000/svg"><g><g><path clip-rule="evenodd" d="m223.043 387.259c9.857 10.063 23.517 16.299 38.566 16.299 15.077 0 28.709-6.236 38.566-16.299 9.884-10.091 15.993-24.01 15.993-39.373 0-30.784-24.434-55.701-54.559-55.701-.167 0-.333 0-.5 0-29.903.283-54.059 25.115-54.059 55.701 0 15.363 6.108 29.281 15.993 39.373z" fill="#80d261" fill-rule="evenodd"/></g><g><path clip-rule="evenodd" d="m251.807 293.063c22.684 6.746 39.288 28.148 39.288 53.49 0 15.392-6.108 29.31-15.993 39.373-7.663 7.852-17.631 13.351-28.765 15.421 4.859 1.446 9.968 2.211 15.271 2.211 15.077 0 28.709-6.236 38.566-16.299 9.884-10.091 15.993-24.01 15.993-39.373 0-30.784-24.434-55.701-54.559-55.701-.167 0-.333 0-.5 0-3.164.028-6.274.339-9.301.878z" fill="#4fc122" fill-rule="evenodd"/></g><g><path clip-rule="evenodd" d="m185.948 225.598h75.661 77.688c2.582 0 4.692-2.154 4.692-4.791v-15.704c0-27.638-18.436-35.405-37.289-40.791h-88.183c-18.853 5.386-37.261 13.153-37.261 40.791v15.704c0 2.637 2.11 4.791 4.692 4.791z" fill="#fdb440" fill-rule="evenodd"/></g><g><path clip-rule="evenodd" d="m288.597 175.17c18.853 5.386 38.15 10.857 38.15 38.495v11.934h12.55c2.582 0 4.692-2.154 4.692-4.791v-15.704c0-27.638-18.436-35.405-37.289-40.791z" fill="#fe9900" fill-rule="evenodd"/></g><g><path clip-rule="evenodd" d="m423.147 286.373c-29.126.482-58.252 22.876-58.252 67.04l63.138 12.501 53.365-12.501c.001-44.164-29.125-66.558-58.251-67.04z" fill="#6d80aa" fill-rule="evenodd"/></g><g><path clip-rule="evenodd" d="m341.795 484.005v15.704c0 1.587.75 2.976 1.916 3.855.777.595 1.749.935 2.777.935h153.32c1.027 0 1.999-.34 2.777-.935 1.166-.879 1.916-2.268 1.916-3.855v-15.704c0-27.666-18.408-35.405-37.261-40.819h-88.183c-18.854 5.414-37.262 13.153-37.262 40.819z" fill="#22a6fe" fill-rule="evenodd"/></g><g><path clip-rule="evenodd" d="m379.056 443.186 36.206 21.685c6.136 4.054 9.635 4.054 15.798 0l36.178-21.685c-3.36-.964-6.719-1.843-10.023-2.778-7.635-2.126-9.662-12.189-11.245-15.449h-45.646c-1.583 3.26-3.582 13.323-11.245 15.449-3.276.936-6.663 1.815-10.023 2.778z" fill="#fed1a3" fill-rule="evenodd"/></g><g><path clip-rule="evenodd" d="m364.896 371.611c0 18.85 15.299 41.925 35.429 53.348 2.665 1.502 5.414 2.806 8.246 3.883 10.551 3.997 18.603 3.997 29.181 0 2.804-1.077 5.553-2.381 8.219-3.883 20.13-11.424 35.429-34.498 35.429-53.348v-18.198c-23.573-1.672-20.047-20.041-36.345-15.761-12.578 3.288-17.242 4.961-21.907 4.961s-9.329-1.672-21.907-4.961c-16.27-4.28-12.772 14.088-36.345 15.761z" fill="#ffe5c1" fill-rule="evenodd"/></g><g><path clip-rule="evenodd" d="m218.517 164.313 36.206 21.657c6.136 4.054 9.662 4.054 15.799 0l36.178-21.657c-3.36-.964-6.719-1.871-9.996-2.778-7.663-2.126-9.69-12.217-11.245-15.477h-45.674c-1.555 3.26-3.582 13.351-11.245 15.477-3.276.907-6.664 1.814-10.023 2.778z" fill="#fed1a3" fill-rule="evenodd"/></g><g><path clip-rule="evenodd" d="m262.608 7.5c-29.126.482-58.252 22.876-58.252 67.04 82.102 17.32 51.116 16.044 116.531 0 .001-44.164-29.125-66.558-58.279-67.04z" fill="#6d80aa" fill-rule="evenodd"/></g><g><path clip-rule="evenodd" d="m204.356 92.738c0 18.85 15.326 41.925 35.429 53.32 2.665 1.531 5.442 2.835 8.246 3.883 10.551 3.997 18.631 3.997 29.181 0 2.804-1.049 5.553-2.353 8.246-3.883 20.102-11.395 35.429-34.469 35.429-53.32v-18.199c-23.601-1.672-20.074-20.069-36.345-15.789-12.578 3.317-17.242 4.989-21.935 4.989-4.665 0-9.329-1.672-21.907-4.989-16.271-4.28-12.772 14.117-36.345 15.789v18.199z" fill="#ffe5c1" fill-rule="evenodd"/></g><g><path clip-rule="evenodd" d="m239.785 146.058c2.665 1.531 5.442 2.835 8.246 3.883 10.551 3.997 18.631 3.997 29.181 0 2.804-1.049 5.553-2.353 8.246-3.883 20.102-11.395 35.429-34.469 35.429-53.32v-18.199c-9.773-.68-14.882-4.252-18.686-7.88v12.728 5.471c0 18.85-15.327 41.925-35.429 53.32-2.665 1.531-5.442 2.835-8.246 3.883-7.913 3.005-14.41 3.77-21.629 2.268.944.595 1.916 1.19 2.888 1.729z" fill="#fed1a3" fill-rule="evenodd"/></g><g><path clip-rule="evenodd" d="m274.436 8.917c16.021 10.432 27.765 29.707 27.765 57.742 3.804 3.628 8.913 7.2 18.686 7.88.001-38.154-21.74-60.066-46.451-65.622z" fill="#49679b" fill-rule="evenodd"/></g><g><path clip-rule="evenodd" d="m271.493 167.885c6.83-2.636 5.942-3.175 7.386-1.02 2.055 3.033 5.525 6.718 9.718 8.306l3.832-2.296 14.271-8.561c-3.36-.964-6.719-1.871-9.996-2.778-7.663-2.126-9.69-12.217-11.245-15.477-2.693 1.531-5.442 2.835-8.246 3.883-10.551 3.997-18.631 3.997-29.181 0-2.804-1.049-5.581-2.353-8.246-3.883-1.194 2.495-2.665 9.014-6.719 12.869-1.639 1.558 26.681 14.031 38.426 8.957z" fill="#ffbc85" fill-rule="evenodd"/></g><g><path clip-rule="evenodd" d="m12.192 496.053h75.661 77.66c2.582 0 4.692-2.154 4.692-4.791v-15.704c0-27.666-18.408-35.405-37.261-40.819h-88.183c-18.853 5.414-37.261 13.153-37.261 40.819v15.704c0 2.636 2.11 4.791 4.692 4.791z" fill="#fd4755" fill-rule="evenodd"/></g><g><path clip-rule="evenodd" d="m114.813 445.596c18.853 5.414 38.177 10.857 38.177 38.523v11.934h12.522c2.582 0 4.692-2.154 4.692-4.791v-15.704c0-27.666-18.408-35.405-37.261-40.819z" fill="#e41e2b" fill-rule="evenodd"/></g><g><path clip-rule="evenodd" d="m44.761 434.739 36.178 21.685c6.164 4.054 9.662 4.054 15.799 0l36.206-21.685c-3.36-.964-6.747-1.843-10.023-2.778-7.663-2.126-9.662-12.189-11.245-15.449h-45.647c-1.583 3.26-3.609 13.323-11.245 15.449-3.304.935-6.663 1.814-10.023 2.778z" fill="#fed1a3" fill-rule="evenodd"/></g><g><path clip-rule="evenodd" d="m88.853 277.926c-29.126.482-58.252 22.876-58.252 67.04 82.074 17.32 51.116 16.044 116.503 0 0-44.164-29.126-66.558-58.251-67.04z" fill="#6d80aa" fill-rule="evenodd"/></g><g><path clip-rule="evenodd" d="m30.601 363.164c0 18.85 15.299 41.925 35.429 53.348 2.665 1.502 5.414 2.806 8.219 3.883 10.579 3.997 18.631 3.997 29.181 0 2.832-1.077 5.581-2.381 8.246-3.883 20.13-11.424 35.429-34.498 35.429-53.348v-18.198c-23.573-1.672-20.074-20.041-36.345-15.761-12.578 3.288-17.242 4.961-21.907 4.961s-9.329-1.672-21.907-4.961c-16.298-4.28-12.772 14.088-36.345 15.761z" fill="#ffe5c1" fill-rule="evenodd"/></g><g><path clip-rule="evenodd" d="m66.029 416.512c2.665 1.502 5.414 2.806 8.219 3.883 10.579 3.997 18.631 3.997 29.181 0 2.832-1.077 5.581-2.381 8.246-3.883 20.13-11.424 35.429-34.498 35.429-53.348v-18.198c-9.746-.68-14.882-4.252-18.686-7.88v12.728 5.471c0 18.85-15.299 41.925-35.429 53.348-2.665 1.502-5.414 2.806-8.219 3.883-7.913 2.976-14.438 3.742-21.629 2.239.945.623 1.917 1.19 2.888 1.757z" fill="#fed1a3" fill-rule="evenodd"/></g><g><path clip-rule="evenodd" d="m100.681 279.343c16.021 10.46 27.738 29.707 27.738 57.742 3.804 3.628 8.94 7.2 18.686 7.88-.001-38.154-21.741-60.066-46.424-65.622z" fill="#49679b" fill-rule="evenodd"/></g><g><path clip-rule="evenodd" d="m93.073 438.311c6.83-2.636 10.579-3.175 12.05-1.021 2.055 3.033 5.498 6.718 9.69 8.306l3.832-2.296 14.299-8.561c-3.36-.964-6.747-1.843-10.023-2.778-7.663-2.126-9.662-12.189-11.245-15.449-2.665 1.502-5.414 2.806-8.246 3.883-10.551 3.997-18.603 3.997-29.181 0-2.804-1.077-5.553-2.381-8.219-3.883-1.194 2.494-2.665 8.986-6.747 12.841-1.611 1.559 22.045 14.032 33.79 8.958z" fill="#ffbc85" fill-rule="evenodd"/></g><g><path clip-rule="evenodd" d="m430.478 446.928c2.221-.68 4.748-1.701 6.691-2.324 1.61-.539 2.61-.964 4.831.822l9.079 7.455 16.159-9.695c-3.36-.964-6.719-1.843-10.023-2.778-7.635-2.126-9.662-12.189-11.245-15.449-2.665 1.502-5.414 2.806-8.219 3.883-10.579 3.997-18.631 3.997-29.181 0-2.832-1.077-5.581-2.381-8.246-3.883-1.166 2.409-2.582 8.561-6.331 12.444 11.19 7.853 25.517 12.785 36.485 9.525z" fill="#ffbc85" fill-rule="evenodd"/></g><g><path clip-rule="evenodd" d="m418.066 286.685c19.547 6.775 36.067 24.293 39.566 52.526.056.454.111.907.167 1.361 4.887 4.507 9.163 11.82 23.601 12.841 0-44.164-29.126-66.558-58.252-67.04-1.694.029-3.388.114-5.082.312z" fill="#49679b" fill-rule="evenodd"/></g><g><path clip-rule="evenodd" d="m458.298 368.748c0 25.285-25.905 54.284-51.283 59.471.5.227 1.027.425 1.555.624 10.551 3.997 18.603 3.997 29.181 0 2.804-1.077 5.553-2.381 8.219-3.883 20.13-11.424 35.429-34.498 35.429-53.348v-18.198c-14.438-1.02-18.714-8.334-23.601-12.841.945 8.871.5 19.274.5 28.175z" fill="#fed1a3" fill-rule="evenodd"/></g><g><path clip-rule="evenodd" d="m451.079 452.881c18.853 5.386 37.261 13.153 37.261 40.791v9.893.935h11.467c1.027 0 1.999-.34 2.777-.935 1.166-.879 1.916-2.268 1.916-3.855v-15.704c0-27.666-18.408-35.405-37.261-40.819z" fill="#0182fc" fill-rule="evenodd"/></g><g><path d="m284.607 324.427c-3.199-2.626-7.927-2.162-10.555 1.041l-21.184 25.818-8.004-6.941c-3.13-2.713-7.866-2.377-10.58.752s-2.377 7.866.752 10.58l13.827 11.991c1.369 1.188 3.116 1.834 4.914 1.834.211 0 .422-.009.634-.027 2.018-.171 3.88-1.151 5.164-2.716l26.072-31.776c2.629-3.202 2.164-7.928-1.04-10.556z"/><path d="m463.074 434.242c-1.29-.353-2.573-.703-3.847-1.058-1.681-.468-3.022-2.85-4.032-5.212 19.316-13.393 33.704-36.348 33.704-56.36v-18.198c0-22.455-7.033-41.523-20.339-55.142-11.942-12.223-28.026-19.111-45.289-19.396-.082-.001-.166-.001-.248 0-17.263.286-33.347 7.174-45.289 19.396-13.306 13.619-20.339 32.687-20.339 55.142v18.198c0 20.013 14.391 42.964 33.713 56.355-1.006 2.362-2.349 4.747-4.048 5.218-1.276.357-2.566.709-3.864 1.064-6.488 1.774-13.728 3.755-20.608 6.766l-52.27-54.056c8.348-10.761 13.35-24.33 13.35-39.074 0-32.438-24.125-59.233-55.06-62.788v-52h70.688c6.723 0 12.192-5.514 12.192-12.291v-15.704c0-36.413-28.323-44.127-49.004-49.76-1.266-.345-2.525-.688-3.775-1.036-1.695-.47-3.036-2.855-4.043-5.227 19.327-13.378 33.722-36.324 33.722-56.343v-18.197c0-22.457-7.034-41.525-20.344-55.143-11.944-12.221-28.036-19.11-45.312-19.395-.082-.001-.166-.001-.248 0-17.264.286-33.348 7.174-45.289 19.396-13.306 13.619-20.339 32.687-20.339 55.142v18.199c0 20.02 14.396 42.967 33.722 56.344-1.007 2.371-2.35 4.756-4.047 5.227-1.246.347-2.506.689-3.771 1.035-20.681 5.633-49.004 13.348-49.004 49.76v15.704c0 6.777 5.47 12.291 12.192 12.291h67.66v52.129c-30.451 4.012-54.059 30.571-54.059 62.658 0 14.756 5.01 28.336 13.37 39.101l-50.799 53.049c-9.808-7.792-22.589-11.3-33.316-14.233-1.298-.354-2.589-.708-3.879-1.068-1.689-.469-3.029-2.853-4.034-5.215 19.323-13.392 33.713-36.342 33.713-56.355v-18.198c0-22.455-7.033-41.523-20.339-55.142-11.942-12.223-28.026-19.111-45.289-19.396-.082-.001-.166-.001-.248 0-17.263.286-33.347 7.174-45.289 19.396-13.306 13.619-20.339 32.687-20.339 55.142v18.198c0 20.011 14.385 42.964 33.704 56.359-1.01 2.363-2.352 4.745-4.036 5.214-1.271.354-2.554.705-3.844 1.058-20.647 5.638-48.924 13.362-48.924 49.762v15.704c0 6.777 5.47 12.291 12.192 12.291h59.501c4.143 0 7.5-3.358 7.5-7.5s-3.357-7.5-7.5-7.5h-56.693v-12.995c0-20.099 10.683-27.005 28.78-32.663l33.176 19.885c4.277 2.791 8.087 4.185 11.895 4.185s7.613-1.396 11.876-4.187l33.193-19.881c18.1 5.66 28.785 12.564 28.785 32.661v12.995h-58.388c-4.143 0-7.5 3.358-7.5 7.5s3.357 7.5 7.5 7.5h61.195c6.723 0 12.192-5.514 12.192-12.291v-15.704c0-10.048-2.163-17.902-5.718-24.139l51.478-53.757c10.532 8.382 23.769 13.396 38.143 13.396 14.387 0 27.635-5.023 38.172-13.418l49.566 51.26c-8.784 7.199-15.051 17.975-15.051 35.106v15.704c0 6.777 5.47 12.291 12.192 12.291h60.917c4.143 0 7.5-3.358 7.5-7.5s-3.357-7.5-7.5-7.5h-58.109v-12.995c0-20.098 10.686-27 28.785-32.661l33.193 19.881c4.263 2.791 8.067 4.187 11.876 4.187 3.808 0 7.618-1.395 11.895-4.185l33.175-19.884c18.099 5.656 28.782 12.562 28.782 32.661v12.995h-55.666c-4.143 0-7.5 3.358-7.5 7.5s3.357 7.5 7.5 7.5h58.474c6.723 0 12.192-5.514 12.192-12.291v-15.704c0-36.401-28.278-44.124-48.926-49.763zm-374.221-148.815c22.468.429 46.468 16.326 50.24 50.096-3.306-1.513-5.419-3.711-7.722-6.106-3.498-3.638-8.039-8.361-16.087-8.361-1.928 0-4.058.271-6.421.893-3.074.804-5.679 1.511-7.929 2.123-6.356 1.728-9.548 2.594-12.082 2.594s-5.726-.867-12.082-2.594c-2.25-.611-4.854-1.319-7.92-2.12-12.263-3.221-18.197 2.959-22.532 7.472-2.298 2.391-4.407 4.587-7.706 6.098 3.774-33.77 27.773-49.666 50.241-50.095zm-50.752 77.737v-11.755c10.133-2.356 15.367-7.778 19.034-11.594 3.694-3.845 4.167-4.337 7.914-3.354 3.02.789 5.578 1.484 7.789 2.085 7.401 2.011 11.479 3.119 16.015 3.119s8.613-1.108 16.015-3.119c2.211-.601 4.77-1.296 7.801-2.088 3.724-.982 4.197-.486 7.891 3.355 3.67 3.817 8.91 9.24 19.046 11.596v11.755c0 18.923-18.145 42.39-38.832 50.218-8.8 3.334-15.048 3.333-23.867 0-20.674-7.831-38.806-31.298-38.806-50.218zm54.784 86.826c-.095.057-.188.115-.28.176-3.615 2.388-3.897 2.39-7.544-.009-.087-.057-.176-.113-.266-.167l-22.472-13.469c3.687-2.636 6.066-6.392 7.659-9.762.538.221 1.074.447 1.615.652 6.131 2.316 11.692 3.474 17.252 3.474 5.561 0 11.118-1.159 17.234-3.476.545-.206 1.085-.433 1.627-.656 1.59 3.373 3.967 7.132 7.659 9.769zm169.723-434.989c22.481.429 46.495 16.324 50.268 50.098-3.313-1.516-5.428-3.72-7.731-6.122-3.494-3.644-8.029-8.373-16.085-8.373-1.93 0-4.062.271-6.429.895-3 .791-5.554 1.489-7.768 2.094-6.444 1.762-9.679 2.647-12.255 2.647-2.551 0-5.775-.882-12.202-2.64-2.219-.607-4.781-1.308-7.797-2.103-12.253-3.224-18.187 2.966-22.522 7.482-2.302 2.398-4.415 4.599-7.719 6.114 3.774-33.768 27.773-49.662 50.24-50.092zm-50.752 77.737v-11.756c10.141-2.359 15.381-7.792 19.052-11.616 3.692-3.847 4.167-4.341 7.881-3.364 2.961.781 5.479 1.47 7.66 2.066 7.477 2.044 11.595 3.171 16.159 3.171 4.59 0 8.718-1.129 16.212-3.178 2.176-.595 4.686-1.281 7.631-2.058 3.715-.978 4.186-.484 7.868 3.356 3.67 3.827 8.912 9.265 19.068 11.624v11.755c0 18.592-18.505 42.512-38.832 50.189-8.809 3.338-15.056 3.338-23.874-.002-20.32-7.675-38.825-31.595-38.825-50.187zm77.281 73.347-22.468 13.45c-.095.057-.188.116-.281.177-3.625 2.395-3.906 2.395-7.531 0-.093-.062-.188-.121-.284-.179l-22.474-13.443c3.694-2.639 6.074-6.4 7.666-9.783.536.22 1.07.444 1.61.648 6.127 2.321 11.688 3.481 17.25 3.481 5.559 0 11.118-1.16 17.239-3.479.542-.205 1.078-.43 1.616-.651 1.591 3.382 3.968 7.14 7.657 9.779zm-100.381 52.013v-12.994c0-20.081 10.681-26.991 28.776-32.641l33.203 19.861c4.271 2.795 8.079 4.193 11.887 4.193 3.809 0 7.617-1.398 11.888-4.194l33.185-19.865c18.106 5.651 28.793 12.559 28.793 32.646v12.994zm72.852 177.96c-25.948 0-47.059-21.61-47.059-48.173 0-26.578 21.11-48.201 47.059-48.201s47.06 21.623 47.06 48.201c0 26.563-21.11 48.173-47.06 48.173zm161.539-102.184c22.468.429 46.467 16.325 50.24 50.094-3.299-1.511-5.408-3.707-7.706-6.098-4.335-4.512-10.271-10.693-22.523-7.474-3.074.804-5.679 1.511-7.929 2.123-6.356 1.728-9.548 2.594-12.082 2.594s-5.726-.867-12.083-2.595c-2.25-.611-4.854-1.319-7.916-2.119-12.243-3.222-18.184 2.955-22.52 7.465-2.303 2.395-4.416 4.593-7.722 6.106 3.774-33.769 27.774-49.666 50.241-50.096zm-50.751 77.737v-11.755c10.136-2.356 15.376-7.779 19.046-11.596 3.694-3.842 4.168-4.334 7.902-3.352 3.019.789 5.577 1.484 7.787 2.085 7.403 2.011 11.481 3.119 16.017 3.119s8.613-1.108 16.015-3.119c2.211-.601 4.77-1.296 7.798-2.088 3.738-.981 4.213-.488 7.905 3.356 3.667 3.817 8.901 9.239 19.034 11.594v11.755c0 18.92-18.133 42.387-38.798 50.216-8.829 3.335-15.075 3.336-23.877.001-20.685-7.827-38.829-31.293-38.829-50.216zm54.809 86.827c-.09.054-.179.109-.266.167-3.645 2.398-3.927 2.398-7.544.009-.092-.061-.186-.12-.28-.176l-22.487-13.468c3.694-2.638 6.071-6.396 7.661-9.767.541.222 1.08.449 1.624.655 6.118 2.317 11.675 3.476 17.236 3.476 5.56 0 11.126-1.159 17.26-3.476.539-.204 1.073-.429 1.609-.649 1.593 3.37 3.972 7.126 7.658 9.762z"/></g></g></svg>