<?xml version="1.0" encoding="UTF-8" standalone="no"?>
<svg
   width="1600px"
   height="1200px"
   viewBox="0 0 1600 1200"
   version="1.1"
   id="svg85"
   sodipodi:docname="Whangaehu.svg"
   inkscape:version="1.1 (c4e8f9e, 2021-05-24)"
   xmlns:inkscape="http://www.inkscape.org/namespaces/inkscape"
   xmlns:sodipodi="http://sodipodi.sourceforge.net/DTD/sodipodi-0.dtd"
   xmlns="http://www.w3.org/2000/svg"
   xmlns:svg="http://www.w3.org/2000/svg">
  <defs
     id="defs89" />
  <sodipodi:namedview
     id="namedview87"
     pagecolor="#505050"
     bordercolor="#eeeeee"
     borderopacity="1"
     inkscape:pageshadow="0"
     inkscape:pageopacity="0"
     inkscape:pagecheckerboard="0"
     showgrid="false"
     inkscape:zoom="0.29462783"
     inkscape:cx="892.6516"
     inkscape:cy="649.97255"
     inkscape:window-width="1680"
     inkscape:window-height="1050"
     inkscape:window-x="0"
     inkscape:window-y="0"
     inkscape:window-maximized="0"
     inkscape:current-layer="svg85" />
  <!-- Generator: Sketch 55.2 (78181) - https://sketchapp.com -->
  <title
     id="title2">Whangaehu</title>
  <desc
     id="desc4">Created with Sketch.</desc>
  <g
     id="Patterns"
     stroke="none"
     stroke-width="1"
     fill="none"
     fill-rule="evenodd">
    <g
       id="Whangaehu"
       stroke-width="5">
      <g
         transform="translate(-146.000000, -400.000000)"
         id="Shape">
        <path
           d="m 1467.8234,490.00345 c -43.1108,-59.80266 -102.6125,-104.27996 -153.9659,-154.2253 -25.7747,-25.07561 -51.7113,-50.83473 -73.9418,-80.70311 -11.5641,-15.53124 -26.0041,-35.17174 -28.2319,-56.82158 -5.9542,-57.91684 83.4536,-50.08534 110.2139,-52.28409 51.7383,-4.26574 110.1868,-7.5021 157.1253,-37.05755 28.6775,-18.06762 42.8002,-47.72189 37.44,-86.6982 -2.3763,-17.29353 -6.0757,-31.98479 0,-48.96538 6.1568,-17.20294 18.9833,-29.34135 31.9719,-38.44104 37.3253,-26.17086 83.7101,-34.53763 125.734,-40.77154 49.2982,-7.26091 98.9671,-10.09589 148.6057,-8.48206 43.4753,1.39172 86.7413,-14.26304 129.1904,-24.58151 56.2344,-13.66188 113.4881,-25.59442 171.032,-23.79095 45.4465,1.43289 91.2508,12.69015 130.1018,42.60795 39.4788,30.46954 63.2147,76.07504 84.6147,125.28747 32.35,74.39509 72.6659,174.08814 143.6372,202.34246 10.322,4.11751 19.9419,4.57044 30.588,5.28688 5.1711,0.34587 11.8476,0.45293 14.413,7.0327 6.1702,15.84416 -16.6408,46.56076 -23.0068,57.26627 -20.32,34.1753 -42.3479,66.81065 -63.1742,100.53302 -19.4423,31.48245 -40.6197,64.29074 -52.6969,101.18359 -19.2196,58.75681 42.2264,93.11327 40.5049,149.10312 -1.0733,34.75998 -28.3534,59.68736 -49.956,76.93148 -26.5982,21.20515 -64.8956,35.14702 -78.2082,73.84334 -9.917,28.82254 5.6436,45.59726 17.6263,67.46945 20.3065,37.05756 21.6904,87.29113 19.5774,130.1873 -2.8488,57.96623 -13.9809,116.78893 -32.9305,170.06943 -8.587,24.1533 -19.1048,49.2783 -34.5912,68.0377 -14.5075,17.5817 -28.2386,22.0863 -47.627,18.4876 -59.3532,-11.0349 -119.2802,-41.7927 -176.1963,-69.2647 -71.5115,-34.5212 -142.0373,-72.6328 -210.4568,-115.5125 -46.6549,-29.2425 -94.3629,-60.18146 -135.3134,-100.58242 -10.673,-10.53258 -21.6026,-21.97925 -29.4066,-35.87171 -5.9002,-10.442 -8.4047,-19.06406 -18.3487,-25.0262 -29.4741,-17.6641 -70.4718,-13.04426 -102.0521,-11.20786 -50.4961,2.92343 -100.7492,10.70552 -150.9348,17.71351 -29.2851,4.11751 -84.4527,17.07118 -107.8376,-13.99951 -20.1849,-26.82967 4.172,-72.57516 16.6138,-96.20964 31.4723,-59.76972 71.957,-112.22674 109.5185,-166.24018 17.2146,-24.75445 35.1043,-49.6983 49.3215,-77.21971 3.6319,-7.01622 9.4511,-16.31355 10.4503,-24.83679 1.1206,-9.76672 -4.1113,-17.21941 -9.4039,-24.58974 z"
           stroke="#5be7c3"
           id="path10" />
        <path
           d="m 1471.5296,503.92514 c -39.8358,-52.87652 -87.8278,-96.31669 -130.5939,-145.79778 -19.1752,-22.18572 -38.5394,-45.4593 -53.1504,-72.52391 -7.8591,-14.55423 -16.2044,-32.87476 -14.037,-50.96453 6.2184,-51.92052 79.7526,-47.23119 109.4606,-50.27225 44.1434,-4.46681 94.8564,-8.96659 133.8887,-36.96247 25.5692,-18.33701 35.1568,-45.4181 30.3833,-80.34495 -5.1247,-37.4652 6.3332,-64.66166 32.4087,-85.56173 32.6924,-26.18278 73.9596,-36.85534 111.9183,-44.43738 45.7329,-9.09126 92.0451,-13.12117 138.372,-12.04062 45.0549,1.0549 88.7055,-8.15894 133.4634,-14.1504 59.3418,-7.93642 120.5876,-11.85107 179.261,4.41736 51.0843,14.16689 97.2263,45.38514 131.8159,93.66298 36.1291,50.38764 54.0147,113.87078 83.3514,169.6153 18.2974,34.77027 43.8126,80.76526 78.0038,94.28108 11.4039,4.50802 32.186,-1.5741 23.0778,20.60338 -5.2057,12.68344 -14.9486,23.80927 -22.6457,34.17689 -12.4368,16.75467 -25.2856,33.04783 -37.9317,49.57174 -26.9533,35.22355 -55.8174,71.19705 -76.0189,112.90654 -25.4544,52.51391 12.3829,92.9295 7.7714,146.17689 -2.4779,28.65518 -18.8038,51.52494 -36.075,69.49109 -11.1743,11.63679 -23.4019,21.71596 -35.886,31.11935 -13.0378,9.82369 -28.4657,17.30684 -39.8358,30.00677 -16.2044,18.07328 -9.169,39.46784 -6.1306,62.83207 5.3476,41.06021 6.5223,82.76918 3.4974,124.18071 -3.7,50.75853 -12.3761,102.96743 -30.6533,149.09433 -7.1097,17.9579 -16.1166,36.9954 -29.492,49.036 -13.3753,12.0407 -27.2098,11.2165 -42.5365,7.5903 -45.46,-10.7137 -90.8256,-35.6438 -133.9495,-59.2718 -53.9741,-29.5782 -106.8882,-62.6343 -157.4189,-100.2396 -34.8799,-25.96022 -69.8746,-54.00555 -99.056,-89.20437 -8.4871,-10.244 -16.5623,-21.21324 -23.0913,-33.45989 -4.4832,-8.39794 -6.8868,-19.23532 -13.3821,-25.54819 -20.323,-19.70508 -61.1243,-13.82075 -84.9583,-12.67521 -47.5666,2.28286 -94.3838,13.13672 -141.8896,15.77395 -25.927,1.44224 -66.5325,5.06844 -85.5727,-21.87255 -17.9058,-25.32568 -1.6879,-65.21383 9.0137,-89.61647 21.032,-47.98116 49.2884,-90.72906 74.6145,-135.33127 10.4113,-18.35349 21.8219,-37.55584 28.5669,-58.5136 5.9957,-18.67491 -4.3549,-32.19073 -14.5636,-45.74776 z"
           stroke="#5acef2"
           id="path12" />
        <path
           d="m 1481.3274,504.79004 c -31.708,-46.52982 -69.933,-87.83388 -101.8704,-135.12082 -18.6943,-27.6924 -50.888,-74.24691 -36.4305,-113.28784 15.8607,-42.9006 71.1474,-44.06919 103.105,-47.5256 38.0362,-4.11477 82.704,-9.73554 115.2553,-36.5227 10.295,-8.46819 19.0653,-19.67683 22.7826,-34.44062 3.9804,-15.80072 -0.3711,-29.62635 -0.9378,-45.44352 -1.1873,-33.18151 15.0445,-59.82053 36.525,-78.1148 30.3587,-25.86544 68.3207,-38.09454 104.1777,-46.62034 40.624,-9.61619 81.9223,-14.35708 123.3037,-14.15481 39.5474,0.16459 78.6764,-0.90525 118.2642,-2.13968 51.7718,-1.64591 104.2722,1.01223 154.4923,17.79226 49.4713,16.54138 94.4495,47.54206 129.7803,93.14194 34.4673,44.49712 57.7221,98.88615 78.0894,154.28742 11.5566,31.44507 31.0806,78.43574 58.6464,94.31876 12.2582,7.06917 24.287,6.58363 11.253,24.96842 -16.414,23.1497 -38.5354,41.72377 -57.5467,61.52404 -27.4241,28.57296 -55.5363,57.70554 -78.555,91.67708 -14.7004,21.69307 -21.2511,42.74423 -20.2391,70.83165 0.7825,21.3968 4.3311,42.57141 2.5366,64.05051 -4.203,50.41416 -36.7408,84.98646 -65.5074,117.18042 -18.5054,20.70552 -35.4051,36.49801 -44.931,65.95153 -11.2664,34.81096 -15.9957,72.6833 -23.5246,108.82744 -8.2711,39.69107 -17.824,80.97868 -35.8773,115.93772 -16.0699,31.1242 -35.6142,45.0815 -64.8665,36.6956 -45.6259,-13.0685 -90.5973,-45.2625 -131.1026,-75.04521 -41.2272,-30.30117 -81.746,-64.37147 -115.9097,-106.02117 -18.4446,-22.49133 -31.0334,-48.89993 -47.4136,-73.06186 -20.6035,-30.33408 -67.2143,-18.84564 -94.915,-16.27803 -45.9833,4.26291 -190.6731,36.1606 -177.322,-67.15304 5.5725,-43.12279 27.5185,-82.92085 43.5682,-120.97424 6.6519,-15.79249 16.279,-34.74512 17.7834,-52.84188 1.6394,-19.70975 -13.0812,-38.43195 -22.6139,-52.43863 z"
           stroke="#ff8062"
           id="path14" />
        <path
           d="m 1498.0687,508.7411 c -24.2306,-42.16545 -53.2291,-82.00072 -74.0204,-127.54203 -13.4877,-29.49358 -26.7326,-68.90069 -9.3335,-100.10691 19.6381,-35.21609 62.9403,-43.42522 94.7577,-47.91266 32.7818,-4.61918 71.9163,-8.50554 98.7096,-35.20786 8.5242,-8.50554 15.5513,-19.97527 16.8596,-33.7093 1.2611,-13.17412 -2.2997,-26.34825 -1.1195,-39.76116 2.6436,-30.11935 17.6081,-54.93612 36.9023,-72.93527 57.0731,-53.24818 142.0184,-65.08843 210.8798,-66.47995 34.4677,-0.69164 69.9403,2.93948 104.6306,5.54137 45.0151,3.37587 90.0977,10.62164 133.029,28.0856 91.2778,37.1181 152.4579,119.43994 195.1869,221.87702 13.4472,32.24368 23.7383,67.13042 44.8128,93.04228 10.8643,13.37998 8.4905,22.98886 -2.6166,35.19139 -17.3654,19.06955 -38.5478,33.64343 -57.8217,49.55943 -27.4137,22.6348 -55.4141,45.60718 -79.6582,72.72119 -16.7113,18.69079 -28.5737,36.69818 -32.1749,64.72613 -2.5694,19.98351 -1.9692,40.34577 -3.5135,60.45279 -2.9403,38.19674 -13.0089,76.10529 -30.8328,107.78907 -14.1621,25.11318 -31.0217,47.93736 -48.4478,69.69937 -22.6525,28.33261 -41.8118,57.11808 -59.0153,90.74504 -22.8077,44.51209 -54.8544,126.61986 -108.5758,104.89077 -59.2513,-23.97691 -114.7869,-84.89903 -152.8019,-143.92736 -12.7661,-19.81882 -23.246,-44.12509 -40.463,-58.74014 -25.7749,-21.84435 -51.9275,-21.0786 -82.585,-20.98803 -45.8986,0.12351 -145.7748,12.28487 -146.8538,-71.63433 -0.4249,-33.2482 11.3633,-64.68497 17.0079,-96.66516 6.3662,-35.81717 -6.3931,-59.97522 -22.9425,-88.71129 z"
           stroke="#f1b170"
           id="path16" />
        <path
           d="m 1516.1162,512.50067 c -23.9674,-54.95529 -77.7117,-145.25838 -36.835,-206.36827 21.5922,-32.29518 59.7834,-44.43158 91.8209,-51.66406 25.7824,-5.85016 56.8752,-8.04705 76.3554,-32.84646 14.3184,-18.23341 7.9621,-44.76894 13.4479,-67.59361 6.8083,-28.29634 22.4357,-51.45013 41.6392,-68.85251 53.6634,-48.63613 128.278,-63.56185 192.832,-66.73789 67.0438,-3.29123 140.9161,12.1035 204.0058,41.71633 78.6632,36.93581 137.5964,106.87442 178.8105,195.44139 7.6045,16.34917 14.514,33.12621 21.8149,49.67287 4.9055,11.09966 12.1794,21.8373 16.0457,33.51293 6.4372,19.46762 -1.1471,35.38071 -13.3062,48.0684 -17.4897,18.26632 -38.9739,31.26667 -58.913,44.97464 -27.2669,18.76 -55.1411,37.18265 -80.5052,59.19275 -17.0443,14.81053 -34.8849,30.76476 -40.9847,56.46102 -4.1632,17.5258 -5.0269,36.08833 -4.8785,54.23945 0.3239,38.91878 -1.3495,70.39116 -16.2346,106.03516 -24.4937,58.51805 -62.1586,111.13657 -101.949,154.91814 -31.2277,34.36043 -80.6401,87.73593 -126.139,64.76315 -40.8227,-20.57018 -64.7024,-69.80696 -91.5982,-109.61437 -13.0767,-19.35242 -27.7662,-37.02632 -45.0265,-50.79189 -21.7609,-17.353 -42.2465,-24.63484 -68.0289,-27.47353 -43.3936,-4.78051 -108.8248,-6.02295 -122.2389,-69.54366 -4.9527,-23.44178 -2.1255,-47.72282 -4.7233,-71.46903 -3.394,-31.39832 -13.3197,-58.32058 -25.4113,-86.04095 z"
           stroke="#5be7c3"
           id="path18" />
        <path
           d="m 1541.038,514.53557 c -17.067,-60.13172 -39.488,-135.91416 1.733,-189.35725 19.9665,-25.88959 48.0518,-40.36239 75.2335,-51.17786 19.4675,-7.75123 50.3782,-10.03294 62.3136,-33.86322 8.7662,-17.53705 9.9799,-41.72977 17.9099,-60.51887 10.897,-25.83193 27.4042,-47.10867 46.7706,-63.76434 50.4524,-43.40192 116.1646,-60.1729 176.0911,-64.9752 130.2106,-10.42009 262.7004,72.56992 332.3776,209.11011 20.7757,40.70012 47.5933,84.01966 14.0191,125.60116 -36.6559,45.36238 -91.8757,66.61441 -135.6254,98.84666 -16.7163,12.30641 -38.018,27.10046 -47.3438,49.38215 -5.6103,13.39372 -5.9947,30.19765 -6.2509,44.94228 -0.6743,37.55349 -3.23,71.3261 -15.6037,106.36724 -19.1102,54.1515 -49.5825,104.11025 -84.1143,145.03277 -30.115,35.68365 -73.0623,77.61934 -116.7985,51.8945 -33.5337,-19.76934 -54.8017,-61.72974 -80.8573,-92.66051 -28.9956,-34.44806 -64.8558,-57.66055 -104.2359,-69.00321 -38.308,-11.00493 -80.3246,-18.42666 -100.5137,-65.18113 -6.9252,-16.03788 -14.1606,-36.80391 -16.7568,-54.55513 -4.191,-29.26785 -10.3273,-58.06987 -18.3481,-86.12015 z"
           stroke="#ff8062"
           id="path20" />
        <path
           d="m 1568.8263,514.95932 c -7.8956,-60.72023 -8.7729,-124.03465 27.9115,-171.89105 17.1208,-22.3264 38.7629,-38.18794 60.6481,-52.55887 16.1017,-10.57436 32.7298,-19.49339 44.7555,-36.82909 11.1417,-16.05096 19.6109,-34.68786 30.3679,-51.15883 14.1896,-21.82759 31.1679,-40.72303 50.2825,-55.96012 47.9138,-38.12206 106.2,-55.95189 161.9622,-62.13674 26.9937,-3.00595 56.2751,-4.57069 83.0866,3.62362 25.8936,7.90606 51.4972,20.40753 75.3056,34.98434 50.6132,30.95719 94.4779,76.29353 126.2765,133.61251 21.8041,39.3162 33.5936,77.54533 5.3582,117.42978 -31.8323,44.95752 -81.7436,69.7628 -122.882,98.94112 -28.2151,20.01223 -59.8383,39.62915 -65.1088,82.1572 -4.1975,33.83961 -7.6054,65.958 -18.4637,97.94462 -16.1602,47.18085 -39.9211,89.91999 -69.8731,125.68174 -27.3919,32.57958 -62.045,60.22611 -101.2264,42.82453 -31.0427,-13.81091 -55.1278,-44.75163 -82.2498,-66.87214 -30.2261,-24.70646 -63.4351,-38.32795 -98.4055,-49.28115 -31.4274,-9.88258 -61.0192,-25.06881 -81.3319,-57.31074 -4.1571,-6.58838 -8.5233,-13.76149 -11.7288,-21.13225 -4.0895,-9.40493 -3.7724,-18.7275 -4.5754,-29.26892 -2.092,-27.81946 -6.5393,-55.31775 -10.1092,-82.79956 z"
           stroke="#f1b170"
           id="path22" />
        <path
           d="m 1599.4658,509.99626 c 0.6745,-57.67519 12.0403,-112.18288 43.1698,-157.13027 13.3084,-19.22781 29.2003,-35.0654 43.8443,-52.68471 11.7908,-14.20433 22.934,-27.40232 36.492,-39.10728 32.1615,-27.71577 58.2994,-63.5813 92.4778,-88.26153 45.625,-32.99497 97.8875,-51.23293 149.7452,-58.52482 25.3218,-3.56346 51.48,-4.80902 77.0986,-0.78363 22.0031,3.45622 43.0753,15.59012 62.6231,28.00448 38.3132,24.31728 75.5135,58.87951 100.39,102.60609 54.8459,96.40304 -53.2877,166.49259 -108.7878,207.53833 -25.5242,18.88137 -64.5254,40.74878 -74.9806,78.14857 -7.4737,26.71768 -12.0268,53.88903 -21.6523,79.78183 -25.8547,69.53689 -78.3397,151.32316 -148.2815,140.43482 -29.9288,-4.65229 -57.2067,-23.55016 -85.1457,-36.23672 -28.7686,-13.06601 -58.4613,-20.34965 -88.3632,-28.34268 -27.9457,-7.46511 -50.2186,-18.08949 -68.269,-46.57239 -8.6272,-13.60217 -7.8649,-29.88519 -8.6339,-46.57239 -1.2546,-27.41057 -2.0303,-54.97786 -1.7268,-82.2977 z"
           stroke="#5be7c3"
           id="path24" />
        <path
           d="m 1627.3655,502.6088 c 11.2366,-87.05548 52.9688,-182.09545 114.3312,-232.65282 72.1804,-59.47201 150.3775,-109.55196 236.6172,-123.94871 39.9832,-6.67568 83.7817,-9.96002 121.5094,11.8697 28.7128,16.60278 62.0647,41.4205 77.8662,76.32172 38.6597,85.36805 -47.3302,153.32665 -96.3215,192.82099 -26.3764,21.26176 -59.9511,41.98024 -79.8313,73.02915 -11.5337,18.00212 -17.4222,41.81561 -26.7342,61.58748 -28.2199,59.9165 -74.6722,108.24316 -132.5367,116.88615 -26.7545,3.99224 -53.7048,-0.94661 -80.2567,-4.873 -27.1799,-4.01693 -54.6975,-6.19826 -81.7086,-11.80385 -21.5616,-4.47789 -46.9723,-12.05903 -54.9135,-40.21872 -10.0144,-35.48564 -2.6066,-83.46659 1.9785,-119.01809 z"
           stroke="#5acef2"
           id="path26" />
        <path
           d="m 1654.7243,488.62411 c 16.3878,-81.8469 51.0901,-161.68366 109.4275,-210.54465 30.9367,-25.90926 66.8491,-43.79448 101.3283,-61.4655 39.0832,-20.02715 79.9174,-35.57271 121.6237,-43.2837 51.9284,-9.60579 136.0306,-18.26417 163.161,53.94398 26.9276,71.67267 -41.1182,135.10711 -81.3574,171.2565 -25.7986,23.15768 -53.409,44.41234 -78.0582,69.72844 -13.3658,13.72491 -23.6622,29.58352 -34.9727,45.68103 -31.2612,44.60183 -75.8272,79.91092 -121.2519,98.76 -44.0252,18.27242 -98.4888,26.36236 -144.9614,20.32374 -20.052,-2.59505 -34.3845,-11.3523 -40.4488,-36.24825 -8.4035,-34.60884 -1.2642,-74.34186 5.5099,-108.15159 z"
           stroke="#f1b170"
           id="path28" />
        <path
           d="m 1681.9096,466.5799 c 16.28,-72.06311 51.3947,-137.88305 102.6141,-181.13405 57.4145,-48.48508 131.3449,-75.42671 199.2959,-89.12723 36.1192,-7.27687 114.3909,-27.00726 132.801,29.46022 18.4102,56.46749 -34.8114,112.11459 -65.4432,142.74797 -37.1776,37.12268 -77.2606,72.96554 -117.2964,106.2734 -34.7844,28.95979 -71.9013,58.56769 -109.5777,80.93154 -21.2493,12.68687 -43.3849,23.04556 -66.1443,30.95334 -16.8529,5.80836 -38.2831,14.47169 -55.9517,10.14823 -44.5659,-10.9194 -28.0837,-95.79701 -20.2977,-130.25342 z"
           stroke="#ff8062"
           id="path30" />
        <path
           d="m 1715.4667,445.00044 c 35.72,-136.27983 148.8918,-203.30473 257.8581,-226.66675 25.3208,-5.42288 96.3025,-24.97489 110.4557,16.65542 13.7152,40.36306 -29.9037,88.23093 -50.3248,110.90994 -63.2783,70.27533 -141.458,122.38112 -215.54,174.00139 -23.1236,16.11231 -64.8284,51.07717 -93.5123,34.9484 -31.1438,-17.54414 -16.3368,-81.59015 -8.9367,-109.8484 z"
           stroke="#5acef2"
           id="path32" />
        <path
           d="m 1752.0553,418.77026 c 31.064,-100.35999 121.416,-157.92024 204.4855,-176.89569 20.3464,-4.64302 72.0206,-19.09894 87.4309,8.90735 14.2607,25.90705 -19.7717,63.44635 -32.5043,78.36328 -28.3457,33.21733 -61.9387,60.5815 -95.1259,86.8837 -30.6853,24.33469 -61.702,49.27856 -93.9899,69.85931 -17.0061,10.83371 -48.9018,33.95001 -68.2272,17.22198 -20.8063,-17.99581 -8.9662,-62.05509 -2.0691,-84.33993 z"
           stroke="#5acef2"
           id="path34" />
        <path
           d="m 1792.3745,389.44868 c 23.6762,-65.53915 87.088,-108.098 143.0249,-122.24036 15.0513,-3.7971 47.5825,-13.64815 60.2798,3.85476 11.6893,16.11916 -7.1503,39.75015 -15.5114,50.66373 -37.0567,48.37394 -91.3227,91.58349 -141.0429,118.12202 -12.501,6.6717 -34.9732,19.768 -47.8328,6.30105 -13.191,-13.82936 -4.3564,-41.65281 1.0824,-56.7012 z"
           stroke="#5be7c3"
           id="path36" />
        <path
           d="m 1835.1465,361.91828 c 13.3417,-32.54411 48.211,-57.0977 77.0951,-64.9136 20.3278,-5.49608 44.7624,-0.74834 27.0466,27.58017 -17.5991,28.11232 -50.254,53.7884 -77.9314,65.17136 -21.1163,8.68064 -37.6665,0.1164 -26.2103,-27.83793 z"
           stroke="#f1b170"
           id="path38" />
        <path
           d="m -96.34602,575.32309 c -0.855675,-64.2956 -28.85041,-131.11696 -15.02485,-196.63019 11.35286,-53.80591 68.507928,-58.29797 102.79558,-82.67517 27.246859,-19.36684 42.709654,-53.67429 57.444788,-86.59133 13.239386,-29.55212 25.131252,-59.99278 39.078086,-89.05949 9.028386,-18.79093 24.531606,-55.68995 44.111076,-56.35635 18.74401,-0.64172 35.93163,28.11236 46.81959,45.10976 14.19612,22.15586 26.78196,45.77617 40.5671,68.2858 23.23124,37.96855 51.1047,66.07268 83.02072,92.67123 36.32016,30.26514 73.23997,59.4964 110.75942,87.69377 27.62417,20.82306 55.43698,41.4898 81.98987,64.36965 16.65535,14.35647 53.4157,41.29234 53.58464,67.75926 0.0804,12.62876 -9.72286,26.615 -16.33244,36.70978 -11.18442,17.08791 -23.93196,32.71137 -36.71993,47.99751 -23.81742,28.47436 -48.64548,55.65704 -73.20404,83.16881 -31.87559,35.70607 -62.32281,70.82801 -90.34449,111.36344 -28.97168,41.95875 -56.64975,85.29966 -84.89377,128.04821 -19.12805,28.95976 -38.23589,61.4819 -65.82637,79.25266 -34.55715,22.21346 -62.92245,-1.20939 -97.870391,-1.48089 C 53.545393,974.72096 55.762064,889.68457 51.941844,866.03959 48.108149,842.10665 39.659197,819.82738 36.384723,795.83685 32.301737,765.88983 32.247836,735.25172 31.243933,704.98383 30.024427,667.96141 29.53932,632.71607 -2.875279,618.59819 c -18.447552,-8.02153 -38.404327,-9.70811 -57.498688,-14.51279 -12.370236,-3.11811 -35.702549,-8.44934 -35.972053,-28.76231 z"
           stroke="#ff8062"
           id="path40" />
        <path
           d="m -81.566456,563.88561 c -3.151228,-53.89557 -21.768444,-122.87794 -4.1634,-178.51207 15.040873,-47.54279 62.079869,-53.70605 93.754097,-78.68044 26.14777,-20.59913 37.787746,-54.30755 50.858257,-87.42271 10.486099,-26.56464 20.655052,-53.3847 32.558192,-79.10066 8.77215,-18.9512 22.16656,-50.94577 40.4059,-54.86784 16.39718,-3.52657 33.98198,24.71895 43.18599,39.08891 13.42815,20.97815 24.91292,43.76079 36.77558,66.06553 20.84399,39.17954 42.18731,74.4123 72.69417,103.1934 30.64181,28.9047 64.16494,50.51731 98.04571,73.01156 26.5054,17.5999 52.87585,35.71065 78.05868,56.02964 18.75892,15.128 45.72992,34.49118 54.31314,61.4678 6.79505,21.3407 -27.66603,56.75473 -37.82823,69.25428 -20.91822,25.69947 -43.08478,49.82518 -65.29183,73.80256 -27.07222,29.21781 -55.00816,54.76897 -78.91566,88.09837 C 290.12326,774.9031 254.3801,849.10941 199.35844,893.39754 166.1727,920.11049 129.24193,926.94116 92.331401,922.94493 77.715641,921.36292 74.206779,896.1743 72.364626,881.483 69.301119,857.07715 68.916494,832.25108 66.561508,807.74635 64.354973,784.80716 59.456062,763.01328 55.508592,740.51903 51.513888,717.72815 50.393751,694.37698 47.451705,671.42955 45.629796,657.18319 43.82813,640.60501 35.858964,629.15189 27.613138,617.29503 14.00955,612.32652 2.119906,608.55276 c -22.328509,-7.02018 -81.459584,-6.63292 -83.686362,-44.66715 z"
           stroke="#5be7c3"
           id="path42" />
        <path
           d="M -62.544372,541.32402 C -67.844047,491.85193 -75.263591,430.234 -53.673325,384.65418 -36.025746,347.38553 1.61207,339.34591 28.49526,315.06245 c 22.3599,-20.1937 30.805624,-52.31105 41.90456,-82.15724 9.107339,-24.48095 18.261936,-49.06887 29.300111,-72.36486 8.371459,-17.66743 19.159839,-41.62173 35.781239,-47.78517 14.21123,-5.26648 30.26553,18.32574 38.14416,30.06837 13.41459,20.01266 24.35149,42.43639 35.21414,64.56387 17.7691,36.20712 34.12045,74.8829 59.41036,104.3341 24.57429,28.57894 53.76638,45.44816 83.50532,64.41576 22.77847,14.53221 45.41517,29.624 66.87717,46.95404 16.47962,13.29789 36.90194,29.05621 45.48943,51.1837 7.4263,19.0828 -11.63903,41.6711 -21.16494,55.13357 -15.73024,22.218 -33.18879,42.60096 -50.40429,63.06621 -18.57924,22.07811 -39.15683,42.44462 -57.13522,65.06583 -37.80659,47.60413 -68.01136,100.31018 -114.60799,136.78062 -30.17777,23.62514 -70.7861,45.08609 -106.45932,41.22674 C 88.695511,832.76662 90.383306,763.46291 87.919126,741.31897 83.868419,705.11185 76.043804,667.06969 63.614886,633.718 52.941274,605.13906 27.577099,596.32592 4.245029,589.91561 c -14.6163,-4.02392 -29.934722,-6.19635 -44.071688,-12.41739 -16.364855,-7.20851 -20.496576,-15.4374 -22.717713,-36.1742 z"
           stroke="#5acef2"
           id="path44" />
        <path
           d="m -44.800887,518.13473 c -3.155475,-41.82616 -2.446,-91.28635 17.993638,-127.46746 17.912555,-31.69149 49.805147,-40.03527 72.488077,-65.00057 17.703091,-19.47706 24.655946,-51.23457 34.176425,-76.99216 11.63539,-31.49342 27.939807,-89.66051 57.291797,-101.5118 27.30465,-11.01775 55.85933,59.36377 65.74469,80.35113 15.64899,33.21829 28.73711,69.647 47.71726,100.32337 16.34495,26.40957 38.24408,41.00912 61.48783,56.69805 29.63579,20.03827 74.63002,43.79863 90.47496,82.85179 11.81107,29.10005 -26.59518,72.36224 -39.71033,92.52429 -13.71652,21.06164 -24.04782,46.02694 -38.20354,66.34581 -22.33833,32.06287 -58.53507,57.87823 -88.42086,77.57812 -29.05469,19.16345 -66.78525,40.37364 -99.74543,39.11093 -21.66264,-0.8253 -25.78435,-41.6611 -30.40607,-61.60858 C 99.465791,652.98036 90.661544,627.5694 71.748967,608.28216 52.498545,588.64829 29.808858,579.39669 5.956983,571.3005 c -12.243512,-4.12649 -26.210034,-7.34516 -37.162977,-15.68068 -12.101617,-9.07004 -12.37865,-21.40826 -13.594893,-37.48509 z"
           stroke="#f1b170"
           id="path46" />
        <path
           d="m -23.181867,494.02636 c 0.17511,-36.13472 6.943783,-74.66747 27.014077,-102.54048 16.716265,-23.21656 42.881732,-30.97731 58.884087,-54.71125 12.675266,-18.79005 19.127395,-45.1684 27.613492,-66.98884 10.378631,-26.73969 25.054191,-73.45202 50.862701,-82.73208 25.1889,-9.03368 47.46827,42.41724 57.12626,62.77586 14.14349,29.85221 25.59299,61.49472 39.86445,91.2648 11.1801,23.35617 24.85214,38.40957 43.05684,53.46296 21.37015,17.68138 51.18599,37.26804 62.60181,66.52073 8.23017,21.17988 -11.69196,55.02332 -18.92535,73.68198 -4.84919,12.53218 -9.28756,25.26145 -11.72563,38.84482 -1.89927,10.57762 -2.08785,20.36684 -7.59034,29.4498 -13.85389,22.84699 -44.22873,25.82811 -64.83783,33.35891 -27.37103,9.99454 -56.41234,21.35233 -85.05629,23.52042 -17.60528,1.35505 -26.58977,-18.44513 -36.63838,-32.37343 C 107.19422,611.09463 90.383669,599.2523 75.701373,586.82688 56.324784,570.40201 35.237505,560.18574 13.422847,549.7231 c -9.839832,-4.72215 -21.397089,-9.35397 -29.021106,-18.74078 -7.960768,-9.73174 -7.644223,-23.91461 -7.583608,-36.95596 z"
           stroke="#ff8062"
           id="path48" />
        <path
           d="m -0.475567,472.57476 c 3.478804,-30.34827 14.319727,-59.35414 32.630638,-80.80793 14.036568,-16.47125 32.677832,-25.74456 43.943492,-45.53476 10.497088,-18.4478 17.812014,-39.42393 26.482057,-59.14825 9.17568,-20.85259 22.80774,-55.70575 43.97046,-61.38009 22.80774,-6.11084 40.37704,29.04704 50.10556,48.53252 12.29042,24.62452 21.62791,51.11851 32.61715,76.59129 8.27879,18.986 18.83912,36.34995 31.32946,51.51383 13.09945,15.98534 30.86427,31.29536 37.49152,53.27624 5.85869,19.46901 -5.10359,43.02289 -7.03851,62.76368 -2.06975,21.09143 1.55738,43.24526 -9.91728,61.35539 -23.66396,37.34855 -83.05307,30.42239 -117.00511,31.22125 -33.50034,0.82356 -60.4341,-22.03029 -87.54315,-43.77234 C 58.68432,552.8309 40.036314,540.67512 21.678209,527.30047 2.962785,513.65404 -3.536375,499.28288 -0.475567,472.57476 Z"
           stroke="#5acef2"
           id="path50" />
        <path
           d="m 20.620802,455.20458 c 10.287572,-43.9659 42.418525,-67.3336 65.38848,-100.55942 18.794208,-27.2005 32.886498,-83.53026 64.538488,-90.98155 35.93567,-8.45688 57.4485,66.17964 69.942,94.9792 13.86292,31.93998 38.55309,57.92057 48.82043,91.73162 5.39676,17.74626 0.76229,34.3056 -2.11148,52.04362 -3.15036,19.4772 -5.51819,39.39127 -16.39266,55.06864 -21.40489,30.85196 -63.20954,30.63766 -93.31671,31.48664 C 126.32307,589.85529 98.752379,568.71308 73.920542,547.61209 47.584359,525.26647 10.08363,500.29146 20.620802,455.20458 Z"
           stroke="#5acef2"
           id="path52" />
        <path
           d="m 37.851416,443.28257 c 11.592177,-31.32436 35.952057,-56.79025 55.718554,-80.83044 16.49813,-20.04169 34.24653,-60.38727 59.40141,-63.26324 29.56481,-3.39218 47.48309,39.69008 59.11603,66.10644 11.44949,25.95751 27.94761,53.36529 34.2873,81.85465 6.61148,29.67743 -10.99422,69.6461 -27.78453,90.64644 C 199.86331,561.2139 169.2249,569.8664 142.93525,568.93233 115.40893,567.98186 90.152113,548.62844 69.305219,528.55398 47.017798,507.09478 24.370244,479.64603 37.851416,443.28257 Z"
           stroke="#ff8062"
           id="path54" />
        <path
           d="m 53.839715,437.38528 c 11.072942,-26.0535 30.266948,-48.09308 47.964615,-67.75222 13.65753,-15.17736 33.81056,-40.9846 53.51468,-41.61665 21.67658,-0.69771 40.0476,20.96428 48.66517,43.16803 8.49515,21.90005 17.44601,49.35718 18.7179,73.3832 2.76143,52.32041 -53.46027,110.92846 -95.67756,106.15938 C 86.997327,546.20418 31.761847,489.29527 53.839715,437.38528 Z"
           stroke="#5acef2"
           id="path56" />
        <path
           d="m 68.625896,434.51256 c 15.275742,-33.94562 52.380764,-82.33968 86.732494,-83.48898 39.43004,-1.3135 49.32834,52.53977 44.18884,91.56697 -5.22108,39.83172 -50.6812,97.48591 -86.92965,89.69525 -35.378259,-7.60185 -62.095511,-57.51463 -43.991684,-97.77324 z"
           stroke="#5be7c3"
           id="path58" />
        <path
           d="m 84.237932,429.02373 c 12.933454,-28.42211 40.532468,-63.92308 69.317658,-64.99763 34.29825,-1.27141 33.65124,44.19576 25.87365,72.49483 -8.08762,29.38182 -43.70686,79.5655 -73.73889,71.64176 -29.203055,-7.73508 -33.846698,-51.89803 -21.452418,-79.13896 z"
           stroke="#ff8062"
           id="path60" />
        <path
           d="m 97.835645,425.75273 c 8.536985,-20.28048 29.903085,-45.91276 50.214745,-46.73292 24.82686,-0.98586 20.00073,35.07662 13.58617,52.48237 -7.62448,20.71128 -33.18134,56.69919 -54.62856,50.8669 -21.116015,-5.74117 -16.215532,-39.90649 -9.172355,-56.61635 z"
           stroke="#5acef2"
           id="path62" />
        <path
           d="m 1594.414,1712.9483 c -0.8557,-64.2956 -28.8504,-131.117 -15.0249,-196.6302 11.3529,-53.8059 68.508,-58.298 102.7956,-82.6752 27.2469,-19.3668 42.7097,-53.6743 57.4448,-86.5913 13.2394,-29.5521 25.1313,-59.9928 39.0781,-89.0595 9.0284,-18.7909 24.5316,-55.6899 44.1111,-56.3563 18.744,-0.6418 35.9316,28.1123 46.8196,45.1097 14.1961,22.1559 26.7819,45.7762 40.5671,68.2858 23.2312,37.9686 51.1047,66.0727 83.0207,92.6712 36.3201,30.2652 73.2399,59.4964 110.7594,87.6938 27.6242,20.8231 55.437,41.4898 81.9899,64.3696 16.6553,14.3565 53.4157,41.2924 53.5846,67.7593 0.08,12.6288 -9.7229,26.615 -16.3324,36.7098 -11.1845,17.0879 -23.932,32.7114 -36.72,47.9975 -23.8174,28.4744 -48.6454,55.657 -73.204,83.1688 -31.8756,35.7061 -62.3228,70.828 -90.3445,111.3635 -28.9717,41.9587 -56.6497,85.2996 -84.8938,128.0482 -19.128,28.9597 -38.2359,61.4819 -65.8263,79.2526 -34.5572,22.2135 -62.9225,-1.2094 -97.8704,-1.4809 -30.0632,-0.2386 -27.8465,-85.2749 -31.6668,-108.9199 -3.8337,-23.933 -12.2826,-46.2122 -15.5571,-70.2028 -4.083,-29.947 -4.1369,-60.5851 -5.1408,-90.853 -1.2195,-37.0224 -1.7046,-72.2678 -34.1192,-86.3856 -18.4475,-8.0216 -38.4043,-9.7081 -57.4987,-14.5128 -12.3702,-3.1181 -35.7025,-8.4494 -35.972,-28.7623 z"
           stroke="#ff8062"
           id="path40-9" />
        <path
           d="m 1609.1935,1701.5108 c -3.1512,-53.8956 -21.7684,-122.8779 -4.1634,-178.5121 15.0409,-47.5428 62.0799,-53.706 93.7541,-78.6804 26.1478,-20.5991 37.7878,-54.3076 50.8583,-87.4227 10.4861,-26.5647 20.6551,-53.3847 32.5582,-79.1007 8.7721,-18.9512 22.1665,-50.9457 40.4059,-54.8678 16.3972,-3.5266 33.982,24.7189 43.186,39.0889 13.4281,20.9781 24.9129,43.7608 36.7756,66.0655 20.844,39.1796 42.1873,74.4123 72.6941,103.1934 30.6418,28.9047 64.165,50.5173 98.0457,73.0116 26.5054,17.5999 52.8759,35.7106 78.0587,56.0296 18.7589,15.128 45.7299,34.4912 54.3132,61.4678 6.795,21.3407 -27.6661,56.7547 -37.8283,69.2543 -20.9182,25.6995 -43.0847,49.8252 -65.2918,73.8026 -27.0722,29.2178 -55.0082,54.7689 -78.9157,88.0983 -42.7608,59.5892 -78.504,133.7955 -133.5257,178.0836 -33.1857,26.713 -70.1165,33.5436 -107.027,29.5474 -14.6158,-1.582 -18.1246,-26.7706 -19.9668,-41.4619 -3.0635,-24.4059 -3.4481,-49.2319 -5.8031,-73.7367 -2.2065,-22.9392 -7.1054,-44.733 -11.0529,-67.2273 -3.9947,-22.7909 -5.1148,-46.142 -8.0569,-69.0895 -1.8219,-14.2463 -3.6236,-30.8245 -11.5927,-42.2776 -8.2459,-11.8569 -21.8494,-16.8254 -33.7391,-20.5992 -22.3285,-7.0201 -81.4596,-6.6329 -83.6864,-44.6671 z"
           stroke="#5be7c3"
           id="path42-4" />
        <path
           d="m 1628.2156,1678.9492 c -5.2996,-49.4721 -12.7192,-111.09 8.8711,-156.6698 17.6476,-37.2687 55.2854,-45.3083 82.1686,-69.5918 22.3599,-20.1937 30.8056,-52.311 41.9045,-82.1572 9.1074,-24.4809 18.262,-49.0689 29.3001,-72.3649 8.3715,-17.6674 19.1599,-41.6217 35.7813,-47.7851 14.2112,-5.2665 30.2655,18.3257 38.1441,30.0683 13.4146,20.0127 24.3515,42.4364 35.2142,64.5639 17.7691,36.2071 34.1204,74.8829 59.4103,104.3341 24.5743,28.5789 53.7664,45.4482 83.5054,64.4158 22.7784,14.5322 45.4151,29.624 66.8771,46.954 16.4796,13.2979 36.902,29.0562 45.4895,51.1837 7.4263,19.0828 -11.6391,41.6711 -21.165,55.1336 -15.7302,22.218 -33.1888,42.6009 -50.4043,63.0662 -18.5792,22.0781 -39.1568,42.4446 -57.1352,65.0658 -37.8066,47.6041 -68.0114,100.3102 -114.608,136.7806 -30.1778,23.6252 -70.7861,45.0861 -106.4593,41.2268 -25.6545,-2.7814 -23.9667,-72.0851 -26.4309,-94.229 -4.0507,-36.2072 -11.8753,-74.2493 -24.3042,-107.601 -10.6736,-28.579 -36.0378,-37.3921 -59.3699,-43.8024 -14.6163,-4.0239 -29.9347,-6.1964 -44.0717,-12.4174 -16.3648,-7.2085 -20.4965,-15.4374 -22.7177,-36.1742 z"
           stroke="#5acef2"
           id="path44-1" />
        <path
           d="m 1645.9591,1655.7599 c -3.1555,-41.8261 -2.446,-91.2863 17.9937,-127.4674 17.9125,-31.6915 49.8051,-40.0353 72.488,-65.0006 17.7031,-19.4771 24.656,-51.2346 34.1765,-76.9922 11.6353,-31.4934 27.9398,-89.6605 57.2918,-101.5118 27.3046,-11.0177 55.8593,59.3638 65.7446,80.3511 15.649,33.2183 28.7372,69.6471 47.7173,100.3234 16.3449,26.4096 38.2441,41.0091 61.4878,56.6981 29.6358,20.0382 74.6301,43.7986 90.475,82.8518 11.8111,29.1 -26.5952,72.3622 -39.7103,92.5243 -13.7166,21.0616 -24.0479,46.0269 -38.2036,66.3458 -22.3383,32.0628 -58.535,57.8782 -88.4208,77.5781 -29.0547,19.1634 -66.7853,40.3736 -99.7455,39.1109 -21.6626,-0.8253 -25.7843,-41.6611 -30.406,-61.6086 -6.6218,-28.3573 -15.4261,-53.7682 -34.3386,-73.0555 -19.2505,-19.6338 -41.9401,-28.8854 -65.792,-36.9816 -12.2435,-4.1265 -26.2101,-7.3452 -37.163,-15.6807 -12.1016,-9.07 -12.3786,-21.4083 -13.5949,-37.4851 z"
           stroke="#f1b170"
           id="path46-3" />
        <path
           d="m 1667.5781,1631.6515 c 0.1751,-36.1347 6.9438,-74.6674 27.0141,-102.5404 16.7163,-23.2166 42.8817,-30.9773 58.8841,-54.7113 12.6753,-18.79 19.1274,-45.1684 27.6135,-66.9888 10.3786,-26.7397 25.0542,-73.452 50.8627,-82.7321 25.1889,-9.0337 47.4683,42.4172 57.1263,62.7759 14.1434,29.8522 25.5929,61.4947 39.8644,91.2648 11.1801,23.3561 24.8521,38.4095 43.0568,53.4629 21.3702,17.6814 51.186,37.2681 62.6019,66.5207 8.2301,21.1799 -11.692,55.0234 -18.9254,73.682 -4.8492,12.5322 -9.2876,25.2615 -11.7256,38.8448 -1.8993,10.5777 -2.0879,20.3669 -7.5904,29.4498 -13.8539,22.847 -44.2287,25.8282 -64.8378,33.359 -27.371,9.9945 -56.4123,21.3523 -85.0563,23.5204 -17.6053,1.355 -26.5898,-18.4452 -36.6384,-32.3735 -11.8738,-16.4659 -28.6843,-28.3082 -43.3666,-40.7336 -19.3766,-16.4249 -40.4639,-26.6412 -62.2786,-37.1038 -9.8398,-4.7222 -21.397,-9.354 -29.0211,-18.7408 -7.9607,-9.7317 -7.6442,-23.9146 -7.5836,-36.956 z"
           stroke="#ff8062"
           id="path48-7" />
        <path
           d="m 1690.2844,1610.1999 c 3.4788,-30.3482 14.3198,-59.3541 32.6307,-80.8079 14.0365,-16.4712 32.6778,-25.7445 43.9435,-45.5347 10.4971,-18.4478 17.812,-39.424 26.482,-59.1483 9.1757,-20.8526 22.8078,-55.7058 43.9705,-61.3801 22.8077,-6.1108 40.377,29.0471 50.1055,48.5325 12.2905,24.6246 21.628,51.1185 32.6172,76.5913 8.2788,18.986 18.8391,36.35 31.3295,51.5139 13.0994,15.9853 30.8642,31.2953 37.4915,53.2762 5.8587,19.469 -5.1036,43.0229 -7.0385,62.7637 -2.0698,21.0914 1.5573,43.2452 -9.9173,61.3554 -23.664,37.3485 -83.0531,30.4224 -117.0051,31.2212 -33.5004,0.8236 -60.4341,-22.0303 -87.5432,-43.7723 -17.9064,-14.3547 -36.5544,-26.5105 -54.9125,-39.8851 -18.7154,-13.6465 -25.2146,-28.0176 -22.1538,-54.7258 z"
           stroke="#5acef2"
           id="path50-8" />
        <path
           d="m 1711.3808,1592.8298 c 10.2876,-43.9659 42.4185,-67.3336 65.3885,-100.5595 18.7942,-27.2005 32.8865,-83.5302 64.5385,-90.9815 35.9356,-8.4569 57.4485,66.1796 69.942,94.9792 13.8629,31.94 38.5531,57.9206 48.8204,91.7316 5.3968,17.7463 0.7623,34.3056 -2.1115,52.0436 -3.1503,19.4772 -5.5182,39.3913 -16.3926,55.0687 -21.4049,30.8519 -63.2096,30.6376 -93.3167,31.4866 -31.1663,0.882 -58.737,-20.2602 -83.5689,-41.3612 -26.3361,-22.3456 -63.8369,-47.3207 -53.2997,-92.4075 z"
           stroke="#5acef2"
           id="path52-8" />
        <path
           d="m 1728.6114,1580.9078 c 11.5922,-31.3244 35.9521,-56.7903 55.7186,-80.8305 16.4981,-20.0417 34.2465,-60.3873 59.4014,-63.2632 29.5648,-3.3922 47.4831,39.6901 59.116,66.1064 11.4495,25.9575 27.9476,53.3653 34.2873,81.8547 6.6115,29.6774 -10.9942,69.6461 -27.7845,90.6464 -18.7269,23.4175 -49.3653,32.07 -75.655,31.1359 -27.5263,-0.9505 -52.7831,-20.3039 -73.63,-40.3783 -22.2874,-21.4592 -44.935,-48.908 -31.4538,-85.2714 z"
           stroke="#ff8062"
           id="path54-3" />
        <path
           d="m 1744.5997,1575.0105 c 11.073,-26.0535 30.267,-48.0931 47.9646,-67.7523 13.6576,-15.1773 33.8106,-40.9846 53.5147,-41.6166 21.6766,-0.6977 40.0476,20.9643 48.6652,43.168 8.4951,21.9001 17.446,49.3572 18.7179,73.3832 2.7614,52.3204 -53.4603,110.9285 -95.6776,106.1594 -40.0272,-4.5228 -95.2627,-61.4317 -73.1848,-113.3417 z"
           stroke="#5acef2"
           id="path56-8" />
        <path
           d="m 1759.3859,1572.1377 c 15.2757,-33.9456 52.3808,-82.3396 86.7325,-83.4889 39.43,-1.3135 49.3283,52.5397 44.1888,91.5669 -5.221,39.8318 -50.6812,97.4859 -86.9296,89.6953 -35.3783,-7.6019 -62.0955,-57.5147 -43.9917,-97.7733 z"
           stroke="#5be7c3"
           id="path58-1" />
        <path
           d="m 1774.9979,1566.6489 c 12.9335,-28.4221 40.5325,-63.9231 69.3177,-64.9976 34.2982,-1.2714 33.6512,44.1957 25.8736,72.4948 -8.0876,29.3818 -43.7068,79.5655 -73.7388,71.6418 -29.2031,-7.7351 -33.8467,-51.8981 -21.4525,-79.139 z"
           stroke="#ff8062"
           id="path60-5" />
        <path
           d="m 1788.5956,1563.3779 c 8.537,-20.2805 29.9031,-45.9128 50.2148,-46.7329 24.8268,-0.9859 20.0007,35.0766 13.5862,52.4824 -7.6245,20.7112 -33.1814,56.6992 -54.6286,50.8669 -21.116,-5.7412 -16.2155,-39.9065 -9.1724,-56.6164 z"
           stroke="#5acef2"
           id="path62-3" />
        <path
           d="m 1152.931,1872.507 c -54.9517,40.6894 -117.0735,74.2763 -175.65403,108.4146 -85.6079,49.8824 -172.47713,98.4233 -262.42884,135.582 -48.22695,19.9167 -110.71964,48.6314 -162.4675,33.0272 -18.91981,-5.7034 -36.17359,-22.9536 -53.13734,-34.163 -23.39176,-15.456 -47.12752,-30.1467 -70.8228,-44.8703 -47.53222,-29.513 -95.21283,-58.7297 -141.9289,-90.1356 -22.49467,-15.1268 -44.32158,-34.1794 -67.74032,-47.0842 -13.68567,-7.5469 -30.0626,-4.0162 -44.68582,-3.5389 -33.87353,1.1111 -67.72683,3.218 -101.58013,5.0121 -41.40773,2.1892 -82.9099,4.5183 -124.36484,3.6542 -18.69722,-0.3951 -64.48922,3.6541 -74.78214,-15.9993 -5.53767,-10.5838 7.51397,-29.6693 13.56426,-38.5002 11.10906,-16.2297 23.8774,-30.8545 36.47711,-45.3312 29.13853,-33.4798 60.08472,-65.3631 85.98563,-102.7605 13.30794,-19.2254 30.74384,-42.714 22.05624,-68.9597 -8.76853,-26.509 -23.95834,-49.4626 -33.22601,-75.8811 -10.67063,-30.4019 -15.09537,-62.0382 -20.13391,-94.2754 -3.73,-23.826 -12.4176,-44.9361 -20.58583,-66.9021 -9.02485,-24.2787 -18.37346,-48.7631 -24.63959,-74.3669 -4.14145,-16.9127 -10.82577,-47.3393 3.66255,-58.0466 20.58583,-15.2256 59.18763,-2.897 82.65359,1.5884 32.43009,6.189 64.62412,14.0734 96.96653,20.8632 23.47944,4.938 47.03983,10.3534 70.91049,10.9295 38.48039,0.93 77.08893,-2.2879 115.46815,-5.2837 71.06562,-5.547 141.62199,-13.0693 212.92706,-13.0693 62.47112,0 206.83631,88.2016 240.62891,103.7317 67.45028,31.0026 136.69475,60.3922 200.52296,101.6412 17.26727,11.1682 43.84272,26.0482 52.92822,49.0347 5.6051,14.164 3.0285,22.3529 16.2488,31.48 18.0362,12.4521 41.1447,17.3407 61.11,22.9125 32.1535,8.9708 64.5566,16.5671 96.8586,24.6902 65.3323,16.386 130.2195,34.9201 195.282,52.7547 19.6685,5.3907 43.465,6.584 62.2162,16.0815 12.0871,6.0985 10.8325,13.7771 1.4771,23.0442 -16.4106,16.2626 -39.4112,25.291 -58.7964,34.5662 -28.4033,13.5879 -57.272,25.7108 -86.1542,37.6608 -28.8822,11.95 -57.9128,23.5297 -86.8085,35.5045 -19.0885,7.8844 -40.8547,14.2956 -58.0073,26.9946 z"
           stroke="#ff8062"
           id="path64" />
        <path
           d="m 1107.7107,1863.5566 c -58.1276,40.7723 -122.65095,73.2534 -184.85349,104.9432 -79.60846,40.5827 -161.01822,78.6187 -244.8972,103.9871 -49.2493,14.8847 -107.35673,31.3189 -157.67872,14.2501 -17.95238,-6.0907 -31.36438,-19.7804 -46.7531,-31.8629 -17.54085,-13.7886 -35.75634,-26.4233 -53.97183,-38.8602 -37.49694,-25.5991 -75.38966,-50.3246 -113.67818,-74.1764 -20.27992,-12.6842 -42.60402,-29.6706 -65.51506,-34.0717 -18.2155,-3.5028 -38.90695,1.5659 -57.2034,3.0412 -32.94981,2.6539 -65.89286,5.3902 -98.85616,7.7144 -38.03665,2.6786 -76.18125,5.1511 -114.29886,4.7225 -21.24466,-0.239 -57.71613,3.7089 -72.74054,-13.0468 -13.10841,-14.621 34.61619,-67.5005 43.00881,-77.5473 26.21007,-31.3684 53.77619,-61.2367 78.17146,-94.781 14.41722,-19.7803 31.97156,-43.8382 38.05014,-70.0555 5.17455,-22.3435 -4.81024,-47.8025 -10.70666,-68.4565 -7.37391,-25.8711 -13.3243,-52.69 -21.89233,-78.0172 -7.63027,-22.5661 -19.77393,-42.6679 -30.44011,-63.1818 -11.73213,-22.5661 -23.61268,-45.5031 -32.32239,-70.1214 -5.33646,-15.1485 -14.1676,-40.5168 -3.56214,-54.9565 12.25161,-16.6485 50.0184,-5.7693 65.54205,-3.3956 31.49257,4.8791 62.74226,12.1319 94.01894,18.6265 51.94789,10.7803 101.47379,20.209 154.37294,17.9507 68.8883,-2.9506 137.70913,-9.8902 206.58394,-13.7309 25.43423,-1.4341 51.27325,-4.3187 76.72771,-2.761 14.59264,0.8984 25.70409,6.338 34.19116,18.61 11.59045,16.7474 38.28627,26.0195 56.85258,35.6294 28.94914,14.9754 58.2626,28.9041 87.49509,43.0141 64.17251,30.9893 129.57963,60.8577 190.43962,100.9376 19.25445,12.676 41.30195,26.8107 55.54377,47.7532 7.94735,11.6786 5.94364,22.9287 10.79436,35.3409 6.42265,16.3271 27.5391,23.6952 40.1618,29.0359 24.3615,10.3188 49.7215,17.2337 74.8859,23.7118 56.9403,14.6539 114.0155,24.2886 171.8801,31.3848 13.5604,1.6484 66.9588,7.36 38.9137,34.8877 -30.9866,30.4205 -75.7293,45.33 -112.2075,62.473 -32.8621,15.4122 -65.7512,29.753 -96.0564,51.0086 z"
           stroke="#5be7c3"
           id="path66" />
        <path
           d="m 1027.3792,1856.0166 c -54.63778,35.8697 -115.1648,62.6301 -174.01014,88.2302 -71.4073,31.0641 -144.60435,58.7544 -219.49658,74.2658 -47.04656,9.7348 -98.91529,17.2149 -145.64442,1.0369 -31.91142,-11.0432 -56.59635,-40.8976 -84.62437,-61.437 -28.02803,-20.5393 -57.19068,-39.8196 -87.22456,-55.8907 -18.64033,-9.9734 -38.69218,-20.0209 -59.43292,-18.7042 -50.43019,3.1928 -100.79958,10.8045 -151.2838,14.4993 -33.39724,2.4686 -66.86203,4.5012 -100.36058,3.8922 -20.20044,-0.362 -47.95156,1.1192 -65.83547,-11.8496 -19.7682,-14.3429 85.48885,-136.8054 95.43711,-150.5888 24.94157,-34.5614 55.14429,-80.4293 50.32212,-129.5805 -4.6128,-46.987 -24.60387,-82.0668 -47.2154,-118.8829 -12.83211,-20.9426 -53.98265,-76.8909 -38.7327,-104.1285 8.71232,-15.5691 37.42923,-10.1792 51.07179,-9.1177 26.88664,2.0902 53.6247,6.5832 80.36951,10.4837 38.9961,5.6532 79.06605,14.3841 118.23099,16.9433 27.2716,1.7774 54.7053,-0.6007 82.02418,-0.6501 39.1717,-0.066 78.34339,0.2962 117.51509,0.7241 32.89072,0.3621 66.05834,0 98.83424,3.8512 20.37604,2.3699 35.8421,7.694 50.4572,22.7364 12.71729,13.084 31.90467,20.7451 48.11365,29.0645 26.77183,13.734 53.89485,26.4641 80.93007,39.3999 56.60311,27.0896 113.85457,53.6113 168.03308,87.465 24.73219,15.4457 66.31498,37.0712 72.11644,74.5209 2.09366,13.5037 3.63351,19.338 14.4395,27.0155 15.33774,10.8951 33.70787,15.8077 50.91647,20.0785 40.1172,9.957 81.3961,8.4676 121.4457,18.3093 16.3103,4.0569 37.6049,12.8124 18.9848,32.858 -21.7268,23.4442 -53.3545,36.3306 -79.3835,50.8135 -12.9942,7.225 -26.3801,13.9891 -38.7192,22.8105 -9.4755,6.7971 -17.5867,15.5115 -27.2783,21.8313 z"
           stroke="#5acef2"
           id="path68" />
        <path
           d="m 923.89386,1844.8174 c -50.47865,29.1339 -105.29985,50.3162 -159.13655,69.4116 -59.79758,21.1823 -121.03818,38.7269 -183.08795,46.1919 -42.8455,5.1718 -88.49611,6.6978 -130.08065,-9.1312 -26.29799,-10.0137 -44.12667,-31.0723 -66.75643,-48.7324 -34.15367,-26.6923 -71.10572,-47.8416 -112.13732,-42.6945 -46.00126,5.7575 -92.1531,10.0769 -138.45555,12.9584 -27.92981,1.7405 -55.96751,3.0438 -83.93104,1.8312 -17.68034,-0.7588 -40.45845,-2.0374 -55.8394,-11.8119 -20.57986,-13.0905 56.72274,-112.7 66.35859,-127.2174 23.89746,-36.005 41.41597,-73.7834 51.65195,-118.3915 8.34793,-36.4009 -8.70531,-65.0151 -26.29799,-92.2436 -10.93726,-16.9095 -46.27772,-59.4391 -35.21233,-81.3967 6.06877,-12.1089 26.06872,-11.482 36.81044,-12.1007 20.47197,-1.1712 41.03161,0.049 61.50358,0.5857 30.2292,0.8248 62.40715,-4.8419 92.38012,-0.2805 66.42602,10.0963 132.68347,18.8397 199.52082,25.7603 36.84416,3.8108 73.91084,7.2752 110.42458,14.6247 13.10854,2.6395 26.64863,5.4358 39.06937,11.4077 7.99055,3.8356 12.34657,10.3684 19.08965,15.73 32.15098,25.521 74.11987,38.6527 110.33018,55.0096 48.1388,21.7432 96.53385,43.1482 143.39147,68.8342 24.64594,13.5111 59.06933,29.0349 76.02816,56.6098 5.12474,8.331 2.93998,14.9959 6.16317,23.0052 3.70869,9.2384 14.97637,11.9934 22.25215,14.567 16.51379,5.8482 85.63702,14.6906 53.78272,48.9964 -15.1989,16.3404 -34.56496,26.8243 -51.69911,39.6673 -6.20363,4.6521 -12.25217,9.3291 -17.42411,15.6062 -8.65136,10.5252 -17.17461,16.5301 -28.69852,23.2032 z"
           stroke="#f1b170"
           id="path70" />
        <path
           d="m 813.63029,1832.2038 c -99.65151,47.1348 -216.43865,79.2474 -325.08366,73.026 -36.12942,-2.0766 -75.00215,-9.0067 -106.32062,-32.7224 -18.46675,-14.0086 -33.22393,-29.8219 -55.407,-34.8814 -16.01397,-3.6505 -33.25771,0.4944 -49.36628,1.9941 -23.33175,2.1755 -46.67702,4.1202 -70.04256,5.6941 -28.96705,1.92 -58.02869,3.4033 -87.0498,2.6122 -20.73708,-0.5686 -49.37304,0.074 -67.38707,-13.5224 -21.50737,-16.217 33.23745,-92.2919 40.94037,-105.8473 18.66945,-32.8543 31.75767,-64.6867 36.48753,-104.2816 1.39194,-11.5365 6.08126,-23.3614 5.47313,-34.9885 -0.63515,-11.8743 -6.62856,-22.4467 -12.16251,-31.783 -7.23669,-12.2369 -32.34552,-41.2595 -25.15613,-56.1827 3.97309,-8.2404 18.88568,-9.2787 26.61563,-11.0256 14.50042,-3.2961 29.2103,-5.0678 43.79856,-7.6883 24.75071,-4.4662 49.32574,-19.0104 74.16429,-18.5984 66.79246,1.0877 134.55117,26.3691 200.00575,40.2541 38.91328,8.2815 78.09008,15.7967 116.53037,27.0118 12.16252,3.5516 24.6899,7.2268 36.25105,13.2505 8.0678,4.2026 13.25038,11.6931 20.72356,16.3983 28.65623,18.0711 61.60988,29.039 92.38104,41.2018 39.94709,15.8214 80.02932,31.165 119.69938,48.0082 24.86558,10.5559 56.83947,19.8428 78.26577,39.4218 15.64909,14.2971 4.95284,18.5738 -3.30415,31.8902 -4.21634,6.79 -3.24334,13.4812 -5.07447,21.1694 -2.61494,10.9762 -10.00705,18.8787 -16.93968,25.9819 -9.56108,9.8142 -22.29794,17.898 -30.11573,29.9289 -2.75684,4.2355 -2.62845,9.4929 -4.85825,13.1846 -6.48667,10.7536 -23.69662,16.0604 -33.06852,20.4937 z"
           stroke="#ff8062"
           id="path72" />
        <path
           d="m 707.68015,1815.411 c -80.87836,29.634 -170.8691,46.5078 -256.36097,38.6768 -29.74511,-2.7285 -59.67232,-9.0675 -87.38046,-22.9901 -12.60626,-6.3143 -22.06938,-13.3539 -35.88298,-13.7331 -32.05186,-0.8738 -64.2049,2.1844 -96.25003,2.9181 -22.93273,0.5275 -45.98012,0.7171 -68.8589,-1.5333 -15.29748,-1.5002 -35.98415,-3.2972 -48.51621,-14.747 -18.21129,-16.6758 14.66345,-73.3639 21.35442,-89.0259 11.08865,-25.9741 22.08961,-54.8498 17.69192,-84.9043 -1.34898,-9.1911 -3.73668,-17.3106 -4.04695,-26.6831 -0.29677,-8.0535 0.53285,-15.4888 -1.80764,-23.1879 -2.89357,-9.5456 -15.76288,-24.3585 -11.33821,-33.1457 3.01498,-6.001 11.95875,-6.2812 17.90777,-8.2019 9.64887,-3.1145 19.07002,-7.2006 28.16679,-12.2163 9.57779,-5.3086 17.7324,-13.5105 27.65417,-17.8959 16.10688,-7.1056 34.13605,-7.7733 51.0658,-7.7414 67.55039,0.133 135.95738,16.3967 201.79456,33.4023 34.28443,8.8531 68.75772,18.2915 102.07764,31.7196 10.11738,4.0804 21.58374,8.1772 30.48029,15.7114 5.55108,4.6904 9.31474,10.5677 15.62124,14.0958 53.87169,30.1204 116.15429,41.3064 173.34448,63.06 14.88604,5.6631 97.38317,34.275 54.2494,61.1889 -26.20402,16.3543 -53.89192,23.7897 -77.80267,46.1615 -7.28451,6.8006 -12.14085,12.4307 -14.98721,22.8088 -1.87509,6.9078 2.63726,3.4044 -3.66249,10.6254 -7.642,8.68 -25.09111,12.1834 -34.51376,15.6373 z"
           stroke="#f1b170"
           id="path74" />
        <path
           d="m 623.58518,1797.8879 c -94.69023,24.1884 -194.96717,25.339 -291.15215,3.8958 -24.24747,-5.3998 -49.48241,-4.1094 -74.02747,-5.482 -23.84841,-1.315 -66.24934,1.4219 -83.57089,-20.9583 -12.55998,-16.2242 1.06865,-50.7027 5.78287,-68.8501 6.00606,-23.1199 11.25461,-47.0041 1.3933,-69.4583 -5.77611,-13.1503 -13.6895,-25.6677 -19.88495,-38.6947 -2.96245,-6.2218 -9.06321,-15.7558 -6.5201,-21.6487 4.20695,-9.723 23.88899,-13.8161 33.43918,-18.4022 30.52407,-14.6544 62.84726,-18.394 95.48157,-18.2894 60.27709,0.1912 120.86531,10.2512 179.99259,23.8947 27.20315,6.2792 54.78506,12.9777 81.02101,23.8924 14.84608,6.1725 25.79633,18.0817 39.97281,25.1418 45.64745,22.75 94.69022,34.9058 141.12225,55.708 13.43925,6.0245 63.6386,26.0787 38.34954,49.7246 -24.48418,22.8897 -60.19593,20.1692 -85.65407,41.7029 -2.88129,2.4657 -6.4457,5.4163 -8.1163,9.4024 -0.98749,2.3835 0.75075,6.9204 0,8.2765 -7.81871,14.7366 -35.61029,17.079 -47.62919,20.1446 z"
           stroke="#5acef2"
           id="path76" />
        <path
           d="m 562.23675,1781.9018 c -48.57859,8.1314 -98.22558,10.1477 -147.62238,10.6601 -27.00088,0.2809 -56.66601,2.3799 -83.08535,-5.9664 -16.22892,-5.14 -31.90336,-9.6354 -48.63268,-12.8747 -18.00059,-3.4873 -46.98275,-6.0242 -57.94404,-24.9232 -8.18884,-14.1226 -2.57634,-43.1528 -2.27881,-60.3246 0.31782,-18.8329 -2.84682,-32.7985 -13.74049,-46.2765 -6.84996,-8.4867 -38.27322,-39.2936 -34.642,-48.177 3.45541,-8.462 25.35094,-9.7594 34.81781,-11.9575 29.92209,-6.9746 60.24313,-9.4041 90.67914,-9.0239 47.13827,0.5784 94.45235,6.4456 140.85356,16.5273 19.18395,4.1896 39.01029,8.528 57.33545,16.8991 12.34075,5.6441 22.63259,15.6514 34.8922,21.4855 35.10858,16.7339 72.23225,28.0964 107.46255,45.136 11.30615,5.4788 48.14582,20.0642 39.31457,42.5413 -7.36387,18.7668 -32.41052,24.4769 -44.71745,37.0542 -20.93532,21.4524 -45.99549,24.7579 -72.69208,29.2203 z"
           stroke="#5acef2"
           id="path78" />
        <path
           d="m 531.63353,1771.1166 c -38.53562,5.3833 -77.96695,7.7374 -117.06829,7.8527 -25.2347,0.074 -51.85674,0.4938 -76.62002,-6.4287 -12.43889,-3.4736 -23.24799,-11.5979 -35.02014,-17.3927 -12.12236,-5.9594 -28.85121,-12.6103 -34.09076,-26.2742 -4.92303,-12.8408 -3.08447,-31.5752 -7.40811,-47.0583 -3.84548,-13.738 -11.89338,-22.2244 -20.56086,-31.5093 -5.52241,-5.9348 -33.88199,-31.6246 -30.60222,-37.296 3.51548,-6.0747 20.5474,-5.5808 29.41018,-6.4204 24.41869,-2.3536 48.92314,-3.1037 73.40761,-2.2471 33.41729,1.2511 67.0905,4.7412 99.92862,12.6432 23.29513,5.5973 40.86581,18.932 62.58503,28.7107 28.13734,12.7009 57.28487,22.7431 85.15282,36.6375 13.88683,6.9225 34.44096,15.8288 41.55274,33.6989 2.73427,6.8484 5.38772,24.2658 2.34366,31.1142 -3.65691,8.2313 -17.26762,11.7214 -23.69247,13.8368 -16.0958,5.2763 -32.93914,7.8444 -49.31779,10.1327 z"
           stroke="#ff8062"
           id="path80" />
      </g>
    </g>
  </g>
</svg>
